<?xml version="1.0" encoding="UTF-8" standalone="no"?>
<svg width="800px" height="600px" viewBox="0 0 800 600" version="1.1" xmlns="http://www.w3.org/2000/svg" xmlns:xlink="http://www.w3.org/1999/xlink" xmlns:sketch="http://www.bohemiancoding.com/sketch/ns">
    <title>beer_chtiJS1</title>
    <description>Created with Sketch (http://www.bohemiancoding.com/sketch)</description>
    <defs>
        <radialGradient cx="50.2853383%" cy="23.2827471%" fx="50.2853383%" fy="23.2827471%" r="79.1000962%" id="radialGradient-1">
            <stop stop-color="#FAEB0F" offset="0%"></stop>
            <stop stop-color="#F1C309" offset="100%"></stop>
        </radialGradient>
        <linearGradient x1="50.0561972%" y1="100.161824%" x2="50.0561972%" y2="2.27714023%" id="linearGradient-2" stop-color="#FFFFFF">
            <stop stop-opacity="0" offset="0%"></stop>
            <stop stop-opacity="0.7" offset="100%"></stop>
        </linearGradient>
        <linearGradient x1="50%" y1="99.0472863%" x2="50%" y2="0.42232074%" id="linearGradient-3" stop-color="#FFFFFF">
            <stop stop-opacity="0" offset="0%"></stop>
            <stop offset="100%"></stop>
        </linearGradient>
        <path d="M398.645302,241.624028 C410.325302,261.191971 417,283.849912 417,308 C417,376.426136 363.415622,432.873334 294.21935,440.996501 L294.21935,440.996501 C294.25957,441.032293 294.300549,441.069356 294.342256,441.107726 C290.383501,447.646784 287.798496,458.429013 287.798496,470.622723 C287.798496,481.725 289.941454,491.657164 293.313122,498.281873 L293.31312,498.281872 C289.300062,499.6681 286.990024,501.412387 286.734204,503.49587 C285.556339,513.088812 328.372726,526.239859 382.367286,532.869558 C384.309572,533.10804 386.239865,533.334836 388.156568,533.55003 C388.713305,535.00815 389,536.493265 389,538 L166,538 C166,536.572469 166.257346,535.164344 166.757875,533.780198 C169.357822,533.498239 171.984117,533.194764 174.632714,532.869558 C228.627274,526.239859 271.443661,513.088812 270.265796,503.49587 C269.975223,501.12934 267.034376,499.200428 261.957912,497.736775 L261.957912,497.736775 C265.17297,491.118699 267.201504,481.424528 267.201504,470.622723 C267.201504,458.435035 264.619052,447.657434 260.663609,441.117417 C260.670146,441.111449 260.676665,441.105513 260.683166,441.099609 C191.050863,433.36345 137,376.723337 137,308 C137,285.97056 142.553939,265.182718 152.394709,246.849278 L152.394709,246.849278 C157.143648,240.930814 161.493566,234.31679 165.37499,227.111411 C165.582347,226.849671 165.790685,226.588683 166,226.328451 L166,225.93836 C178.524023,202.172666 186,172.145915 186,139.5 C186,118.609365 182.938646,98.7912572 177.452155,81 L377.547845,81 C372.061354,98.7912574 369,118.609365 369,139.5 C369,172.145915 376.475977,202.172666 389,225.93836 L389,227.586933 C390.267436,229.201583 391.497647,230.84453 392.689414,232.514607 C394.581698,235.685057 396.569244,238.724905 398.645302,241.624028 Z" id="path-4"></path>
    </defs>
    <g id="Page-1" stroke="none" stroke-width="1" fill="none" fill-rule="evenodd" sketch:type="MSPage">
        <g id="beer_chtiJS1" sketch:type="MSArtboardGroup">
            <g id="chtijs-copy" sketch:type="MSLayerGroup" transform="translate(33.000000, 2.000000)">
                <g id="logo" sketch:type="MSShapeGroup">
                    <g id="Group" transform="translate(0.000000, 148.000000)">
                        <g id="hexa-jaune" fill="url(#radialGradient-1)">
                            <path d="M145.471805,342.840034 L17.5676692,271.022613 C9.9924812,266.713568 3.87406015,256.371859 3.87406015,247.753769 L3,102.68258 C3,94.0644891 8.82706767,83.7227806 16.4022556,79.4137353 L143.432331,6.1599665 C147.219925,4.14907873 152.172932,3 157.12594,3 C162.078947,3 167.031955,4.14907873 170.528195,6.1599665 L298.432331,77.9773869 C306.007519,82.2864322 312.12594,92.6281407 312.12594,101.246231 L313,246.31742 C313,254.935511 307.172932,265.277219 299.597744,269.586265 L172.567669,342.840034 C169.071429,344.850921 164.118421,346 158.87406,346 C153.921053,346 148.968045,344.850921 145.471805,342.840034 Z" id="Shape"></path>
                        </g>
                        <path d="M71.4295775,300 C94.528169,210.911112 144.478873,100.198707 208,28.1203188 L166.711268,5.92017514 C159.78169,1.88378538 148.521127,2.17209894 141.591549,5.92017514 L15.415493,79.4401314 C8.48591549,83.4765211 3,93.2791819 3,101.063648 L3.86619718,246.950306 C3.86619718,255.023086 9.64084507,264.537433 16.5704225,268.573823 L71.4295775,300 L71.4295775,300 Z" id="glow" opacity="0.7" fill="url(#linearGradient-2)"></path>
                        <path d="M3,97.6917982 L3.87142857,242.31285 C3.87142857,250.331443 9.68095238,259.781928 16.3619048,263.504846 L143.880952,335.099426 C150.852381,339.108722 162.180952,338.822344 168.861905,335.099426 L295.509524,262.072954 C302.480952,258.063658 308,248.613173 308,240.59458 L307.128571,95.9735283 C307.128571,87.9549353 301.319048,78.5044508 294.638095,74.4951543 L167.119048,2.90057418 C160.147619,-1.1087223 148.819048,-0.822343983 142.138095,2.90057418 L15.4904762,76.2134242 C8.51904762,80.2227207 3,89.9595836 3,97.6917982 L3,97.6917982 Z M6,97.8327571 C6,90.1551426 11.5762877,80.7713915 18.3265306,77.0747623 L143.646259,5.98573898 C150.396501,2.00475367 161.549077,2.00475367 168.29932,5.98573898 L294.499514,75.6529818 C301.249757,79.3496111 307.119534,88.7333621 307.119534,96.4109767 L308,237.167243 C308,244.844857 302.423712,254.228608 295.673469,257.925238 L170.353741,329.014261 C163.603499,332.995246 152.450923,332.995246 145.70068,329.014261 L19.5004859,259.347018 C12.750243,255.650389 6.88046647,246.266638 6.88046647,238.589023 L6,97.8327571 L6,97.8327571 Z" id="stroke-light" fill="url(#linearGradient-3)"></path>
                    </g>
                    <g id="JS" transform="translate(100.039672, 343.017632)" fill="#FFFFFF">
                        <path d="M21.973661,71.0426633 C16.5215496,71.0426633 12.0607312,70.0513703 8.2607748,67.9035689 C4.62603389,65.9209829 1.65215496,63.4427505 -0.82607748,60.6340871 L8.75642129,49.8950798 C10.7390072,52.0428813 12.7215932,53.8602517 14.7041791,55.0167602 C16.6867651,56.1732687 18.999782,56.8341306 21.312799,56.8341306 C24.2866779,56.8341306 26.4344794,56.0080532 28.0866343,54.1906827 C29.7387893,52.3733123 30.5648668,49.3994333 30.5648668,45.4342614 L30.5648668,0.660861984 L46.2603389,0.660861984 L46.2603389,46.0951234 C46.2603389,50.2255108 45.7646924,53.8602517 44.6081839,56.8341306 C43.4516755,59.8080096 41.7995205,62.4514575 39.8169346,64.599259 C37.6691331,66.7470604 35.0256852,68.3992154 32.0518062,69.3905083 C29.2431428,70.5470168 25.7736174,71.0426633 21.973661,71.0426633 L21.973661,71.0426633 Z" id="Shape"></path>
                        <path d="M86.9033509,71.0426633 C81.6164551,71.0426633 76.4947747,70.0513703 71.3730943,68.3992154 C66.2514139,66.5818449 61.62538,63.7731815 57.4949926,59.9732251 L66.5818449,49.2342178 C69.7209393,51.8776658 73.0252493,53.8602517 76.3295592,55.3471912 C79.6338691,56.8341306 83.26861,57.6602081 87.2337819,57.6602081 C90.3728763,57.6602081 92.8511088,57.1645616 94.6684792,56.0080532 C96.4858497,54.8515447 97.3119272,53.1993897 97.3119272,51.2168038 L97.3119272,51.0515883 C97.3119272,50.0602953 97.1467117,49.2342178 96.8162807,48.4081403 C96.4858497,47.5820629 95.8249877,46.9212009 94.6684792,46.2603389 C93.6771863,45.5994769 92.1902468,44.9386149 90.3728763,44.2777529 C88.5555059,43.616891 86.2424889,42.956029 83.26861,42.1299515 C79.7990846,41.303874 76.4947747,40.312581 73.6861112,39.3212881 C70.8774478,38.3299951 68.3992154,37.0082711 66.4166294,35.3561162 C64.4340435,33.8691767 62.947104,31.8865907 61.7905955,29.5735738 C60.6340871,27.2605569 60.1384406,24.4518934 60.1384406,20.982368 L60.1384406,20.8171525 C60.1384406,17.6780581 60.7993026,14.8693946 61.955811,12.2259467 C63.1123195,9.74771427 64.7644745,7.43469732 66.9122759,5.61732687 C69.0600774,3.79995641 71.5383098,2.31301694 74.5121887,1.32172397 C77.4860677,0.330430992 80.7903776,-0.165215496 84.259903,-0.165215496 C89.3815834,-0.165215496 94.0076173,0.660861984 98.3032202,2.14780145 C102.598823,3.63474091 106.563995,5.78254236 110.03352,8.75642129 L102.103177,20.321506 C98.9640821,18.1737046 95.9902032,16.5215496 93.0163243,15.3650411 C90.0424454,14.2085327 87.0685664,13.5476707 84.0946875,13.5476707 C81.1208086,13.5476707 78.9730071,14.2085327 77.4860677,15.1998256 C75.9991282,16.3563341 75.1730507,17.8432736 75.1730507,19.4954285 L75.1730507,19.660644 C75.1730507,20.8171525 75.3382662,21.8084455 75.8339127,22.634523 C76.3295592,23.4606004 76.9904212,24.2866779 78.1469296,24.9475399 C79.3034381,25.6084019 80.7903776,26.2692639 82.7729635,26.7649104 C84.7555495,27.2605569 87.2337819,28.0866343 90.2076609,28.9127118 C93.6771863,29.9040048 96.8162807,30.8952978 99.6249441,32.0518062 C102.433608,33.2083147 104.746625,34.5300387 106.563995,36.1821936 C108.381365,37.8343486 109.868305,39.6517191 110.859598,41.964736 C111.850891,44.1125374 112.346537,46.7559854 112.346537,49.7298643 L112.346537,49.8950798 C112.346537,53.3646052 111.685675,56.3384842 110.529167,58.9819321 C109.207443,61.62538 107.555288,63.938397 105.242271,65.7557674 C102.929254,67.5731379 100.285806,68.8948619 97.3119272,69.8861548 C94.1728328,70.5470168 90.7033073,71.0426633 86.9033509,71.0426633 L86.9033509,71.0426633 Z" id="Shape"></path>
                    </g>
                    <g id="CHTI" transform="translate(46.000000, 267.000000)" fill="#575747">
                        <path d="M7.76694915,47.2058824 C2.58898305,42.1397059 0,35.9044118 0,28.3051471 C0,20.9007353 2.58898305,14.6654412 7.76694915,9.59926471 C12.9449153,4.53308824 19.3177966,2 26.8855932,2 C34.6525424,2 41.2245763,4.33823529 46.8008475,9.01470588 L39.6313559,16.8088235 C36.0466102,14.0808824 31.6652542,12.5220588 27.0847458,12.5220588 C22.3050847,12.5220588 18.3220339,14.0808824 15.3347458,17.0036765 C12.3474576,19.9264706 10.9533898,23.6286765 10.9533898,28.3051471 C10.9533898,33.1764706 12.5466102,37.0735294 15.5338983,39.9963235 C18.5211864,42.9191176 22.5042373,44.2830882 27.2838983,44.2830882 C32.0635593,44.2830882 36.2457627,42.9191176 39.8305085,40.1911765 L47,47.9852941 C41.4237288,52.6617647 34.8516949,55 27.0847458,55 C19.3177966,54.8051471 12.9449153,52.2720588 7.76694915,47.2058824 L7.76694915,47.2058824 Z" id="Shape"></path>
                        <path d="M61,55 L61,2 L70.9230769,2 L70.9230769,23.1217712 L94.0769231,23.1217712 L94.0769231,2 L104,2 L104,55 L94.0769231,55 L94.0769231,33.095941 L70.9230769,33.095941 L70.9230769,55 L61,55 L61,55 Z" id="Shape"></path>
                        <path d="M121.296296,10.2272727 L121,10.2272727 C119.814815,10.2272727 118.777778,9.81818182 118.037037,8.79545455 C117.296296,7.77272727 117,6.54545455 117,5.11363636 C117,3.68181818 117.296296,2.45454545 118.037037,1.43181818 C118.777778,0.409090909 119.666667,0 121,0 C122.333333,0 123.222222,0.409090909 123.962963,1.43181818 C124.703704,2.45454545 125,3.68181818 125,5.11363636 L125,5.31818182 C125,11.25 123.222222,15.5454545 119.666667,18 L118.333333,14.7272727 C119.814815,13.9090909 120.703704,12.2727273 121.296296,10.2272727 L121.296296,10.2272727 Z" id="Shape"></path>
                        <path d="M180,2 L180,11.9741697 L163.461538,11.9741697 L163.461538,55 L153.538462,55 L153.538462,11.9741697 L137,11.9741697 L137,2 L180,2 L180,2 Z" id="Shape"></path>
                        <path d="M205,2 L215,2 L215,55 L205,55 L205,2 L205,2 Z" id="Shape"></path>
                    </g>
                </g>
            </g>
            <g id="Group-copy" sketch:type="MSLayerGroup" transform="translate(-85.000000, 16.000000)">
                <g id="Oval-4">
                    <use stroke="#979797" stroke-width="3" sketch:type="MSShapeGroup" xlink:href="#path-4"></use>
                    <use stroke="none" xlink:href="#path-4"></use>
                </g>
            </g>
            <g id="Group" sketch:type="MSLayerGroup" transform="translate(381.000000, 159.000000)" fill="#EDEDED">
                <path d="M209.515135,314.715852 C203.430949,306.09915 192.944391,305.969425 187.469154,314.740437 C187.469154,314.740437 187.088697,314.910317 186.501292,315.448941 C189.319902,320.129768 191.160132,327.843523 191.160132,336.566508 C191.160132,348.978537 187.434265,359.347204 182.465459,361.842372 C185.600775,374.770605 191.605844,377.632631 198.498741,377.632631 C205.391639,377.632631 211.396707,374.770605 214.532022,361.842372 C209.563216,359.347204 205.837349,348.978537 205.837349,336.566508 C205.837349,327.839213 207.679398,320.122145 210.500368,315.442004 C209.903035,314.890044 209.515135,314.715852 209.515135,314.715852 Z" id="Oval-4" sketch:type="MSShapeGroup"></path>
                <path d="M204.964287,359.160816 C202.831659,359.105245 200.675377,359.076923 198.498741,359.076923 C196.482042,359.076923 194.482817,359.101235 192.503688,359.149007 L192.503688,359.149007 C192.620474,359.389863 192.695174,359.637943 192.726513,359.893179 C193.565688,366.727712 162.996237,376.105179 124.447729,380.838341 C122.771656,381.044137 121.108095,381.237764 119.459058,381.419331 C118.958807,382.593028 118.700252,383.79183 118.700252,385.010256 L278.297229,385.010256 C278.297229,383.772663 278.030476,382.555318 277.514636,381.363961 C276.02949,381.198538 274.532769,381.023357 273.025936,380.838341 C234.477427,376.105179 203.907976,366.727712 204.747151,359.893179 C204.777978,359.642112 204.850761,359.39797 204.964287,359.160816 Z" id="Pied" sketch:type="MSShapeGroup"></path>
                <path d="M286.621575,175.634819 C294.043076,189.001913 298.246851,204.248703 298.246851,220.433333 C298.246851,273.316725 253.36481,316.187179 198,316.187179 C142.63519,316.187179 97.7531486,273.316725 97.7531486,220.433333 C97.7531486,204.248701 101.956926,189.001908 109.378424,175.634819 C112.214845,171.993617 114.844655,167.999179 117.237737,163.696791 C117.717596,163.074631 118.205145,162.458215 118.700252,161.847672 L118.700252,161.847672 L118.700252,160.972099 L118.700252,160.972099 C127.45211,144.071407 132.664987,122.822896 132.664987,99.7435897 C132.664987,84.781429 130.474097,70.5887224 126.5484,57.8512821 L269.451585,57.8512821 C265.525903,70.5887224 263.335013,84.781429 263.335013,99.7435897 C263.335013,123.68671 268.945409,145.659425 278.297229,162.851376 L278.297229,163.09872 C278.453032,163.297482 278.608045,163.496841 278.762264,163.696793 C281.155342,167.999174 283.785148,171.993607 286.621565,175.634805 Z" id="corps" sketch:type="MSShapeGroup"></path>
            </g>
            <g id="CHTI" sketch:type="MSLayerGroup" transform="translate(523.000000, 285.000000)" fill="#575747">
                <path d="M3.96610169,24.0294118 C1.3220339,21.4485294 0,18.2720588 0,14.4007353 C0,10.6286765 1.3220339,7.45220588 3.96610169,4.87132353 C6.61016949,2.29044118 9.86440678,1 13.7288136,1 C17.6949153,1 21.0508475,2.19117647 23.8983051,4.57352941 L20.2372881,8.54411765 C18.4067797,7.15441176 16.1694915,6.36029412 13.8305085,6.36029412 C11.3898305,6.36029412 9.3559322,7.15441176 7.83050847,8.64338235 C6.30508475,10.1323529 5.59322034,12.0183824 5.59322034,14.4007353 C5.59322034,16.8823529 6.40677966,18.8676471 7.93220339,20.3566176 C9.45762712,21.8455882 11.4915254,22.5404412 13.9322034,22.5404412 C16.3728814,22.5404412 18.5084746,21.8455882 20.3389831,20.4558824 L24,24.4264706 C21.1525424,26.8088235 17.7966102,28 13.8305085,28 C9.86440678,27.9007353 6.61016949,26.6102941 3.96610169,24.0294118 L3.96610169,24.0294118 Z" id="Shape" sketch:type="MSShapeGroup"></path>
                <path d="M32,28 L32,1 L37.3076923,1 L37.3076923,11.7601476 L49.6923077,11.7601476 L49.6923077,1 L55,1 L55,28 L49.6923077,28 L49.6923077,16.8413284 L37.3076923,16.8413284 L37.3076923,28 L32,28 L32,28 Z" id="Shape" sketch:type="MSShapeGroup"></path>
                <path d="M63.1481481,5.11363636 L63,5.11363636 C62.4074074,5.11363636 61.8888889,4.90909091 61.5185185,4.39772727 C61.1481481,3.88636364 61,3.27272727 61,2.55681818 C61,1.84090909 61.1481481,1.22727273 61.5185185,0.715909091 C61.8888889,0.204545455 62.3333333,0 63,0 C63.6666667,0 64.1111111,0.204545455 64.4814815,0.715909091 C64.8518519,1.22727273 65,1.84090909 65,2.55681818 L65,2.65909091 C65,5.625 64.1111111,7.77272727 62.3333333,9 L61.6666667,7.36363636 C62.4074074,6.95454545 62.8518519,6.13636364 63.1481481,5.11363636 L63.1481481,5.11363636 Z" id="Shape" sketch:type="MSShapeGroup"></path>
                <path d="M94,1 L94,6.08118081 L85.1538462,6.08118081 L85.1538462,28 L79.8461538,28 L79.8461538,6.08118081 L71,6.08118081 L71,1 L94,1 L94,1 Z" id="Shape" sketch:type="MSShapeGroup"></path>
                <path d="M103,1 L108,1 L108,28 L103,28 L103,1 L103,1 Z" id="Shape" sketch:type="MSShapeGroup"></path>
            </g>
            <g id="chtijs" sketch:type="MSLayerGroup" transform="translate(509.245502, 322.267542)">
                <g id="logo" sketch:type="MSShapeGroup">
                    <path d="M135.828698,13.8080068 C137.882818,12.60977 139.508997,13.6368301 139.508997,15.9477153 L139.252232,87.3283923 C139.252232,89.7248658 137.540465,92.5492811 135.486345,93.7475179 L73.1780321,129.26668 C71.1239119,130.464916 67.7859666,130.379328 65.7318464,129.26668 L3.68029869,93.3195762 C1.62617849,92.1213394 0,89.2113358 0,86.9004506 L0.256765025,15.605362 C0.256765025,13.2088884 1.96853186,12.2674166 3.93706372,13.4656534 L65.9886114,49.4127569 C68.0427316,50.6109937 71.3806769,50.6109937 73.4347971,49.4127569 L135.828698,13.8080068 L135.828698,13.8080068 Z" id="fond" stroke="#ACAC9D" stroke-width="0.75" fill="#DCDCCC"></path>
                    <path d="M30.0415079,40.7683344 C30.0415079,38.6286259 31.4965097,36.0609756 33.2938649,35.0339155 L66.6733181,15.5197736 C68.4706733,14.4927135 71.4662653,14.4071252 73.2636205,15.4341853 L106.81425,34.6059738 C108.611606,35.6330339 110.152196,38.2006842 110.152196,40.3403927 L110.323372,78.9407348 C110.323372,81.0804433 108.868371,83.6480936 107.071015,84.6751537 L73.6915622,104.189296 C71.894207,105.216356 68.898615,105.301944 67.1012599,104.274884 L33.5506299,85.1030954 C31.7532748,84.0760353 30.2126846,81.508385 30.2126846,79.4542648 L30.0415079,40.7683344 L30.0415079,40.7683344 Z" id="Shape" fill="#8A8A7B"></path>
                    <g id="hexa-jaune" transform="translate(23.108852, -0.485246)">
                        <path d="M46.6456462,102.877187 C45.1906444,102.877187 43.7356426,102.534833 42.7085825,101.935715 L5.1353005,80.5386295 C2.91000362,79.2548044 1.11264844,76.1736241 1.11264844,73.6059738 L0.855883417,30.3838613 C0.855883417,27.816211 2.56765025,24.7350307 4.79294713,23.4512056 L42.1094641,1.62617849 C43.2221125,1.0270601 44.6771143,0.684706733 46.1321162,0.684706733 C47.587118,0.684706733 49.0421198,1.0270601 50.0691799,1.62617849 L87.6424619,23.0232639 C89.8677587,24.307089 91.6651139,27.3882693 91.6651139,29.9559196 L91.9218789,73.1780321 C91.9218789,75.7456824 90.2101121,78.8268627 87.9848152,80.1106878 L50.6682983,101.935715 C49.6412382,102.534833 48.1862364,102.877187 46.6456462,102.877187 L46.6456462,102.877187 Z" id="Shape" fill="url(#radialGradient-1)"></path>
                        <path d="M46.2177045,1.28382512 C47.5015296,1.28382512 48.8709431,1.54059015 49.8980032,2.13970854 L87.4712852,23.536794 C89.5254054,24.7350307 91.1515839,27.559446 91.1515839,29.8703312 L91.4083489,73.0924438 C91.4083489,75.4889173 89.7821704,78.3133326 87.7280502,79.5115694 L50.4115332,101.336597 C49.3844731,101.935715 48.0150597,102.19248 46.6456462,102.19248 C45.3618211,102.19248 43.9924076,101.935715 42.9653475,101.336597 L5.39206552,79.9395111 C3.33794532,78.7412743 1.71176683,75.916859 1.71176683,73.5203855 L1.45500181,30.2982729 C1.45500181,27.9017994 3.0811803,25.0773841 5.1353005,23.8791473 L42.4518175,2.0541202 C43.4788776,1.62617849 44.848291,1.28382512 46.2177045,1.28382512 L46.2177045,1.28382512 Z M46.2177045,0 L46.2177045,0 C44.591526,0 43.0509359,0.342353367 41.8526991,1.11264844 L4.53618211,22.8520872 C2.13970854,24.307089 0.256765025,27.559446 0.256765025,30.3838613 L0.51353005,73.6059738 C0.51353005,76.4303891 2.48206191,79.6827461 4.87853547,81.0521595 L42.4518175,102.449245 C43.6500542,103.133952 45.1050561,103.476305 46.7312345,103.476305 C48.357413,103.476305 49.8980032,103.133952 51.09624,102.363657 L88.4127569,80.5386295 C90.8092305,79.0836277 92.692174,75.8312707 92.692174,73.0068554 L92.435409,29.9559196 C92.435409,27.1315043 90.4668771,23.8791473 88.0704036,22.5097339 L50.4971216,1.11264844 C49.2988848,0.342353367 47.7582946,0 46.2177045,0 L46.2177045,0 L46.2177045,0 Z" id="Shape" fill="#C5A807"></path>
                    </g>
                    <path d="M44.6771143,88.9545708 C51.5241817,62.5077732 66.3309648,29.64185 85.1603999,8.24476459 L72.9212671,1.65446228 C70.8671469,0.456225502 67.5292016,0.541813843 65.4750814,1.65446228 L28.0729761,23.4794894 C26.0188559,24.6777262 24.3926774,27.5877298 24.3926774,29.898615 L24.6494424,73.2063159 C24.6494424,75.6027895 26.3612092,78.4272047 28.4153294,79.6254415 L44.6771143,88.9545708 L44.6771143,88.9545708 Z" id="glow" opacity="0.7" fill="url(#linearGradient-2)"></path>
                    <path d="M24.8206191,29.898615 L25.0773841,73.1207276 C25.0773841,75.5172011 26.7891509,78.3416164 28.7576828,79.4542648 L66.3309648,100.85135 C68.385085,102.049587 71.7230303,101.963999 73.6915622,100.85135 L111.008079,79.0263231 C113.062199,77.8280864 114.688378,75.0036711 114.688378,72.6071975 L114.431613,29.385085 C114.431613,26.9886114 112.719846,24.1641961 110.751314,22.9659594 L73.1780321,1.56887394 C71.1239119,0.37063716 67.7859666,0.456225502 65.8174347,1.56887394 L28.5009178,23.4794894 C26.4467976,24.6777262 24.8206191,27.5877298 24.8206191,29.898615 L24.8206191,29.898615 Z M25.6765025,30.3265567 C25.6765025,28.0156715 27.302681,25.1912562 29.2712128,24.0786078 L65.8174347,2.68152238 C67.7859666,1.4832856 71.0383236,1.4832856 73.0068554,2.68152238 L109.809842,23.6506661 C111.778374,24.7633145 113.490141,27.5877298 113.490141,29.898615 L113.746906,72.2648441 C113.746906,74.5757294 112.120728,77.4001446 110.152196,78.5127931 L73.6059738,99.9098785 C71.637442,101.108115 68.385085,101.108115 66.4165531,99.9098785 L29.6135662,78.9407348 C27.6450344,77.8280864 25.9332675,75.0036711 25.9332675,72.6927859 L25.6765025,30.3265567 L25.6765025,30.3265567 Z" id="stroke-light" fill="url(#linearGradient-3)"></path>
                    <g id="JS" transform="translate(42.794171, 33.750090)" fill="#FFFFFF">
                        <path d="M11.3832494,36.8029869 C8.55883417,36.8029869 6.24794894,36.2894569 4.27941708,35.1768084 C2.39647357,34.1497483 0.855883417,32.8659232 -0.427941708,31.4109214 L4.53618211,25.8476792 C5.56324221,26.9603276 6.59030231,27.9017994 7.61736241,28.5009178 C8.64442251,29.1000362 9.84265929,29.4423895 11.0408961,29.4423895 C12.5814862,29.4423895 13.6941347,29.0144478 14.5500181,28.0729761 C15.4059015,27.1315043 15.8338432,25.5909142 15.8338432,23.536794 L15.8338432,0.342353367 L23.9647357,0.342353367 L23.9647357,23.8791473 C23.9647357,26.0188559 23.7079706,27.9017994 23.1088522,29.4423895 C22.5097339,30.9829797 21.6538504,32.3523931 20.6267903,33.4650416 C19.5141419,34.57769 18.1447284,35.4335734 16.6041383,35.9471035 C15.1491365,36.5462219 13.3517813,36.8029869 11.3832494,36.8029869 L11.3832494,36.8029869 Z" id="Shape"></path>
                        <path d="M45.0194677,36.8029869 C42.2806408,36.8029869 39.6274022,36.2894569 36.9741636,35.4335734 C34.320925,34.4921017 31.9244514,33.0370999 29.7847429,31.068568 L34.4921017,25.5053258 C36.1182802,26.8747393 37.830047,27.9017994 39.5418138,28.6720945 C41.2535807,29.4423895 43.1365242,29.8703312 45.1906444,29.8703312 C46.8168229,29.8703312 48.100648,29.6135662 49.0421198,29.0144478 C49.9835915,28.4153294 50.4115332,27.559446 50.4115332,26.5323859 L50.4115332,26.4467976 C50.4115332,25.9332675 50.3259449,25.5053258 50.1547682,25.0773841 C49.9835915,24.6494424 49.6412382,24.307089 49.0421198,23.9647357 C48.5285897,23.6223823 47.7582946,23.2800289 46.8168229,22.9376756 C45.8753511,22.5953222 44.6771143,22.2529688 43.1365242,21.8250271 C41.339169,21.3970854 39.6274022,20.8835554 38.1724004,20.3700253 C36.7173986,19.8564953 35.4335734,19.1717885 34.4065133,18.3159051 C33.3794532,17.54561 32.6091582,16.5185499 32.0100398,15.3203132 C31.4109214,14.1220764 31.1541564,12.6670746 31.1541564,10.8697194 L31.1541564,10.784131 C31.1541564,9.15795256 31.4965097,7.70295075 32.0956281,6.33353728 C32.6947465,5.04971216 33.5506299,3.85147537 34.6632784,2.91000362 C35.7759268,1.96853186 37.0597519,1.19823678 38.6003421,0.684706733 C40.1409322,0.171176683 41.8526991,-0.0855883417 43.6500542,-0.0855883417 C46.3032928,-0.0855883417 48.6997664,0.342353367 50.9250633,1.11264844 C53.1503602,1.88294352 55.2044804,2.99559196 57.0018355,4.53618211 L52.8935951,10.527366 C51.2674166,9.41471758 49.7268265,8.55883417 48.1862364,7.95971577 C46.6456462,7.36059738 45.1050561,7.01824402 43.5644659,7.01824402 C42.0238758,7.01824402 40.9112273,7.36059738 40.1409322,7.87412743 C39.3706372,8.47324582 38.9426955,9.2435409 38.9426955,10.0994243 L38.9426955,10.1850127 C38.9426955,10.784131 39.0282838,11.2976611 39.2850488,11.7256028 C39.5418138,12.1535445 39.8841672,12.5814862 40.4832856,12.9238396 C41.082404,13.266193 41.8526991,13.6085463 42.8797592,13.8653113 C43.9068193,14.1220764 45.1906444,14.5500181 46.7312345,14.9779598 C48.5285897,15.4914898 50.1547682,16.0050199 51.60977,16.6041383 C53.0647718,17.2032567 54.2630086,17.8879634 55.2044804,18.7438468 C56.1459521,19.5997302 56.9162472,20.541202 57.4297772,21.7394388 C57.9433073,22.8520872 58.2000723,24.2215007 58.2000723,25.7620908 L58.2000723,25.8476792 C58.2000723,27.6450344 57.857719,29.1856245 57.2586006,30.555038 C56.5738938,31.9244514 55.7180104,33.1226882 54.5197736,34.06416 C53.3215368,35.0056317 51.9521234,35.6903385 50.4115332,36.2038685 C48.7853547,36.5462219 46.9879996,36.8029869 45.0194677,36.8029869 L45.0194677,36.8029869 Z" id="Shape"></path>
                    </g>
                </g>
            </g>
        </g>
    </g>
</svg>