<?xml version="1.0" encoding="UTF-8" standalone="no"?>
<svg width="392px" height="848px" viewBox="0 0 392 848" version="1.1" xmlns="http://www.w3.org/2000/svg" xmlns:xlink="http://www.w3.org/1999/xlink" xmlns:sketch="http://www.bohemiancoding.com/sketch/ns">
    <title>beerNorth</title>
    <description>Created with Sketch (http://www.bohemiancoding.com/sketch)</description>
    <defs>
        <radialGradient cx="50%" cy="42.6335141%" fx="50%" fy="42.6335141%" r="236.838937%" id="radialGradient-1">
            <stop stop-color="#FFE685" offset="0%"></stop>
            <stop stop-color="#908348" offset="100%"></stop>
        </radialGradient>
        <linearGradient x1="50%" y1="0%" x2="50%" y2="92.6297678%" id="linearGradient-2">
            <stop stop-color="#474310" stop-opacity="0.296013327" offset="0%"></stop>
            <stop stop-color="#FFF08B" stop-opacity="0" offset="100%"></stop>
        </linearGradient>
        <path d="M274.094527,164.579746 C274.242176,165.002822 274.389075,165.19189 274.535222,165.38152 L274.094527,164.579746 Z M293,219.189189 C293,269.342618 250.467054,310 198,310 C145.532946,310 103,269.342618 103,219.189189 L293,219.189189 Z" id="path-3"></path>
        <path d="M274.094527,164.579746 C274.242176,165.002822 274.389075,165.19189 274.535222,165.38152 L274.094527,164.579746 Z M293,219.189189 C293,269.342618 250.467054,310 198,310 C145.532946,310 103,269.342618 103,219.189189 L293,219.189189 Z" id="path-4"></path>
    </defs>
    <g id="Page-1" stroke="none" stroke-width="1" fill="none" fill-rule="evenodd" sketch:type="MSPage">
        <g id="beerNorth" sketch:type="MSArtboardGroup">
            <g id="Group-copy" sketch:type="MSLayerGroup" transform="translate(-4.000000, 344.000000)">
                <path d="M287.345367,176.086322 C294.785609,189.487779 299,204.773764 299,221 C299,269.967184 260.619594,310.371521 211.026743,316.261528 L211.026743,316.261528 C208.201581,320.954552 206.35714,328.687343 206.35714,337.431718 C206.35714,349.875654 210.092417,360.270975 215.07377,362.772558 C214.598185,364.733683 214.056738,366.46377 213.45631,367.987837 C224.981711,373.240909 247.509389,378.599675 273.715326,381.81736 C275.225985,382.002845 276.726506,382.178471 278.215423,382.344313 C278.732571,383.538738 279,384.759219 279,386 L119,386 C119,384.778434 119.259211,383.576543 119.760732,382.399822 C121.413953,382.217796 123.081734,382.023678 124.76206,381.81736 C150.664537,378.636935 172.97345,373.364729 184.616276,368.170364 L184.616276,368.170365 C183.986834,366.602284 183.420904,364.8124 182.92623,362.772558 C187.907583,360.270975 191.64286,349.875654 191.64286,337.431718 C191.64286,328.762587 189.830025,321.087706 187.045969,316.38335 C136.934956,310.952777 98,270.319673 98,221 C98,204.773762 102.214393,189.487774 109.654636,176.086316 L109.654632,176.086323 C112.498216,172.43576 115.134666,168.431054 117.533792,164.117606 C118.014862,163.493846 118.503643,162.875846 119,162.263733 L119,161.385909 C127.773958,144.44177 133,123.138636 133,100 C133,84.9993761 130.803577,70.7701844 126.867966,58 L270.132019,58 C266.196423,70.7701844 264,84.9993761 264,100 C264,124.004671 269.624564,146.03387 279,163.270018 L279,163.517997 C279.156196,163.717269 279.311601,163.917141 279.466209,164.117607 C281.865331,168.431049 284.501777,172.43575 287.345356,176.086308 Z" id="verre" stroke-opacity="0.513470818" stroke="#979797" stroke-width="2" sketch:type="MSShapeGroup"></path>
                <g id="corps-copy">
                    <use fill="url(#radialGradient-1)" fill-rule="evenodd" sketch:type="MSShapeGroup" xlink:href="#path-3"></use>
                    <use fill="none" xlink:href="#path-3"></use>
                    <use fill="url(#linearGradient-2)" fill-rule="evenodd" xlink:href="#path-3"></use>
                </g>
                <path d="M292.726745,219 C292.726745,219 292.726746,206.799171 290.694565,196.87257 C288.662383,186.945969 287.336304,186.473058 282.406586,177.433445 C277.476868,168.393832 271.907689,169.266244 268.348633,160.013031 C264.789577,150.759818 265.474666,141.386172 265.474666,141.386172 C265.474666,141.386172 260.214148,136.017285 248.720498,141.386172 C237.22685,146.75506 242.102051,147.925653 233.716655,147.707842 C225.331259,147.490031 231.301902,136.294873 216.062791,140.537885 C200.823681,144.780897 200.692948,158.000835 190.770475,160.013031 C180.848004,162.025228 181.781127,147.114674 165.739625,150.743012 C149.698123,154.371351 152.789306,164.745423 145.193727,166.558225 C137.598148,168.371027 133.10321,157.552888 130.135842,156.633399 C127.168475,155.71391 123.057913,165.723 118.575128,172.711761 C114.092343,179.700524 112.60092,181.067863 110.054797,187.608959 C107.508673,194.150055 107.703103,194.181182 105.478343,201.816406 C103.253583,209.45163 103,219 103,219" id="mousse" stroke="#CACACA" sketch:type="MSShapeGroup"></path>
                <path d="M214,167 C217.865993,167 221,160.955844 221,153.5 C221,146.044156 217.865993,140 214,140 C210.134007,140 207,146.044156 207,153.5 C207,160.955844 210.134007,167 214,167 Z" id="Oval-19" stroke="#CACACA" sketch:type="MSShapeGroup" transform="translate(214.000000, 153.500000) rotate(45.000000) translate(-214.000000, -153.500000) "></path>
                <g id="corps-copy-2">
                    <use fill="url(#radialGradient-1)" fill-rule="evenodd" sketch:type="MSShapeGroup" xlink:href="#path-4"></use>
                    <use fill="none" xlink:href="#path-4"></use>
                    <use fill="url(#linearGradient-2)" fill-rule="evenodd" xlink:href="#path-4"></use>
                </g>
                <path d="M149.5,223 C150.328427,223 151,222.328427 151,221.5 C151,220.671573 150.328427,220 149.5,220 C148.671573,220 148,220.671573 148,221.5 C148,222.328427 148.671573,223 149.5,223 Z M141.5,223 C142.880712,223 144,221.880712 144,220.5 C144,219.119288 142.880712,218 141.5,218 C140.119288,218 139,219.119288 139,220.5 C139,221.880712 140.119288,223 141.5,223 Z M146,222 C146.552285,222 147,221.552285 147,221 C147,220.447715 146.552285,220 146,220 C145.447715,220 145,220.447715 145,221 C145,221.552285 145.447715,222 146,222 Z M132.5,221 C132.776142,221 133,220.776142 133,220.5 C133,220.223858 132.776142,220 132.5,220 C132.223858,220 132,220.223858 132,220.5 C132,220.776142 132.223858,221 132.5,221 Z M136,221 C137.10457,221 138,220.10457 138,219 C138,217.89543 137.10457,217 136,217 C134.89543,217 134,217.89543 134,219 C134,220.10457 134.89543,221 136,221 Z" id="Oval-20" stroke-opacity="0.699391085" stroke="#FFFFFF" sketch:type="MSShapeGroup"></path>
                <g transform="translate(152.500000, 217.500000)" stroke-opacity="0.699391085" stroke="#FFFFFF" sketch:type="MSShapeGroup">
                    <path d="M98.2510108,7.02754499 C99.079438,7.02754499 99.7510108,6.35597215 99.7510108,5.52754499 C99.7510108,4.69911782 99.079438,4.02754499 98.2510108,4.02754499 C97.4225836,4.02754499 96.7510108,4.69911782 96.7510108,5.52754499 C96.7510108,6.35597215 97.4225836,7.02754499 98.2510108,7.02754499 Z M90.2510108,7.02754499 C91.6317227,7.02754499 92.7510108,5.90825693 92.7510108,4.52754499 C92.7510108,3.14683304 91.6317227,2.02754499 90.2510108,2.02754499 C88.8702989,2.02754499 87.7510108,3.14683304 87.7510108,4.52754499 C87.7510108,5.90825693 88.8702989,7.02754499 90.2510108,7.02754499 Z M94.7510108,6.02754499 C95.3032956,6.02754499 95.7510108,5.57982976 95.7510108,5.02754499 C95.7510108,4.47526021 95.3032956,4.02754499 94.7510108,4.02754499 C94.198726,4.02754499 93.7510108,4.47526021 93.7510108,5.02754499 C93.7510108,5.57982976 94.198726,6.02754499 94.7510108,6.02754499 Z M81.2510108,5.02754499 C81.5271532,5.02754499 81.7510108,4.80368737 81.7510108,4.52754499 C81.7510108,4.2514026 81.5271532,4.02754499 81.2510108,4.02754499 C80.9748684,4.02754499 80.7510108,4.2514026 80.7510108,4.52754499 C80.7510108,4.80368737 80.9748684,5.02754499 81.2510108,5.02754499 Z M84.7510108,5.02754499 C85.8555804,5.02754499 86.7510108,4.13211454 86.7510108,3.02754499 C86.7510108,1.92297543 85.8555804,1.02754499 84.7510108,1.02754499 C83.6464412,1.02754499 82.7510108,1.92297543 82.7510108,3.02754499 C82.7510108,4.13211454 83.6464412,5.02754499 84.7510108,5.02754499 Z" id="Oval-20" transform="translate(90.251011, 4.027545) scale(-1, -1) rotate(-3.000000) translate(-90.251011, -4.027545) "></path>
                    <path d="M17.5,7 C18.3284272,7 19,6.32842717 19,5.5 C19,4.67157283 18.3284272,4 17.5,4 C16.6715728,4 16,4.67157283 16,5.5 C16,6.32842717 16.6715728,7 17.5,7 Z M9.5,7 C10.8807119,7 12,5.88071194 12,4.5 C12,3.11928806 10.8807119,2 9.5,2 C8.11928806,2 7,3.11928806 7,4.5 C7,5.88071194 8.11928806,7 9.5,7 Z M14,6 C14.5522848,6 15,5.55228478 15,5 C15,4.44771522 14.5522848,4 14,4 C13.4477152,4 13,4.44771522 13,5 C13,5.55228478 13.4477152,6 14,6 Z M0.5,5 C0.776142389,5 1,4.77614239 1,4.5 C1,4.22385761 0.776142389,4 0.5,4 C0.223857611,4 0,4.22385761 0,4.5 C0,4.77614239 0.223857611,5 0.5,5 Z M4,5 C5.10456955,5 6,4.10456955 6,3 C6,1.89543045 5.10456955,1 4,1 C2.89543045,1 2,1.89543045 2,3 C2,4.10456955 2.89543045,5 4,5 Z" id="Oval-20-copy" transform="translate(9.500000, 4.000000) scale(-1, -1) translate(-9.500000, -4.000000) "></path>
                    <path d="M58.5,7 C59.3284272,7 60,6.32842717 60,5.5 C60,4.67157283 59.3284272,4 58.5,4 C57.6715728,4 57,4.67157283 57,5.5 C57,6.32842717 57.6715728,7 58.5,7 Z M50.5,7 C51.8807119,7 53,5.88071194 53,4.5 C53,3.11928806 51.8807119,2 50.5,2 C49.1192881,2 48,3.11928806 48,4.5 C48,5.88071194 49.1192881,7 50.5,7 Z M55,6 C55.5522848,6 56,5.55228478 56,5 C56,4.44771522 55.5522848,4 55,4 C54.4477152,4 54,4.44771522 54,5 C54,5.55228478 54.4477152,6 55,6 Z M41.5,5 C41.7761424,5 42,4.77614239 42,4.5 C42,4.22385761 41.7761424,4 41.5,4 C41.2238576,4 41,4.22385761 41,4.5 C41,4.77614239 41.2238576,5 41.5,5 Z M45,5 C46.1045696,5 47,4.10456955 47,3 C47,1.89543045 46.1045696,1 45,1 C43.8954304,1 43,1.89543045 43,3 C43,4.10456955 43.8954304,5 45,5 Z" id="Oval-20-copy-2" transform="translate(50.500000, 4.000000) scale(1, -1) rotate(-7.000000) translate(-50.500000, -4.000000) "></path>
                    <path d="M48.5,20.0797464 C49.3284272,20.0797464 50,19.4081735 50,18.5797464 C50,17.7513192 49.3284272,17.0797464 48.5,17.0797464 C47.6715728,17.0797464 47,17.7513192 47,18.5797464 C47,19.4081735 47.6715728,20.0797464 48.5,20.0797464 Z M40.5,20.0797464 C41.8807119,20.0797464 43,18.9604583 43,17.5797464 C43,16.1990344 41.8807119,15.0797464 40.5,15.0797464 C39.1192881,15.0797464 38,16.1990344 38,17.5797464 C38,18.9604583 39.1192881,20.0797464 40.5,20.0797464 Z M45,19.0797464 C45.5522848,19.0797464 46,18.6320311 46,18.0797464 C46,17.5274616 45.5522848,17.0797464 45,17.0797464 C44.4477152,17.0797464 44,17.5274616 44,18.0797464 C44,18.6320311 44.4477152,19.0797464 45,19.0797464 Z M31.5,18.0797464 C31.7761424,18.0797464 32,17.8558888 32,17.5797464 C32,17.303604 31.7761424,17.0797464 31.5,17.0797464 C31.2238576,17.0797464 31,17.303604 31,17.5797464 C31,17.8558888 31.2238576,18.0797464 31.5,18.0797464 Z M35,18.0797464 C36.1045696,18.0797464 37,17.1843159 37,16.0797464 C37,14.9751768 36.1045696,14.0797464 35,14.0797464 C33.8954304,14.0797464 33,14.9751768 33,16.0797464 C33,17.1843159 33.8954304,18.0797464 35,18.0797464 Z" id="Oval-20-copy-3" transform="translate(40.500000, 17.079746) scale(-1, -1) rotate(-101.000000) translate(-40.500000, -17.079746) "></path>
                    <path d="M65.3194877,70.7415613 C66.1479148,70.7415613 66.8194877,70.0699885 66.8194877,69.2415613 C66.8194877,68.4131341 66.1479148,67.7415613 65.3194877,67.7415613 C64.4910605,67.7415613 63.8194877,68.4131341 63.8194877,69.2415613 C63.8194877,70.0699885 64.4910605,70.7415613 65.3194877,70.7415613 Z M66.519506,75.049688 C67.3479332,75.049688 68.019506,74.3781152 68.019506,73.549688 C68.019506,72.7212609 67.3479332,72.049688 66.519506,72.049688 C65.6910789,72.049688 65.019506,72.7212609 65.019506,73.549688 C65.019506,74.3781152 65.6910789,75.049688 66.519506,75.049688 Z M68.4806318,69.0680149 C69.309059,69.0680149 69.9806318,68.396442 69.9806318,67.5680149 C69.9806318,66.7395877 69.309059,66.0680149 68.4806318,66.0680149 C67.6522047,66.0680149 66.9806318,66.7395877 66.9806318,67.5680149 C66.9806318,68.396442 67.6522047,69.0680149 68.4806318,69.0680149 Z M61.8194877,69.7415613 C62.3717724,69.7415613 62.8194877,69.2938461 62.8194877,68.7415613 C62.8194877,68.1892765 62.3717724,67.7415613 61.8194877,67.7415613 C61.2672029,67.7415613 60.8194877,68.1892765 60.8194877,68.7415613 C60.8194877,69.2938461 61.2672029,69.7415613 61.8194877,69.7415613 Z M17.4554554,62.1367837 C18.0077402,62.1367837 18.4554554,61.6890685 18.4554554,61.1367837 C18.4554554,60.5844989 18.0077402,60.1367837 17.4554554,60.1367837 C16.9031706,60.1367837 16.4554554,60.5844989 16.4554554,61.1367837 C16.4554554,61.6890685 16.9031706,62.1367837 17.4554554,62.1367837 Z M67.5184418,71.8680425 C68.0707265,71.8680425 68.5184418,71.4203272 68.5184418,70.8680425 C68.5184418,70.3157577 68.0707265,69.8680425 67.5184418,69.8680425 C66.966157,69.8680425 66.5184418,70.3157577 66.5184418,70.8680425 C66.5184418,71.4203272 66.966157,71.8680425 67.5184418,71.8680425 Z M47.5286695,67.5691251 C47.8048119,67.5691251 48.0286695,67.3452675 48.0286695,67.0691251 C48.0286695,66.7929827 47.8048119,66.5691251 47.5286695,66.5691251 C47.2525271,66.5691251 47.0286695,66.7929827 47.0286695,67.0691251 C47.0286695,67.3452675 47.2525271,67.5691251 47.5286695,67.5691251 Z M65.0071498,71.9853142 C65.2832922,71.9853142 65.5071498,71.7614566 65.5071498,71.4853142 C65.5071498,71.2091718 65.2832922,70.9853142 65.0071498,70.9853142 C64.7310074,70.9853142 64.5071498,71.2091718 64.5071498,71.4853142 C64.5071498,71.7614566 64.7310074,71.9853142 65.0071498,71.9853142 Z M56.7449321,67.3231517 C57.0210745,67.3231517 57.2449321,67.0992941 57.2449321,66.8231517 C57.2449321,66.5470093 57.0210745,66.3231517 56.7449321,66.3231517 C56.4687897,66.3231517 56.2449321,66.5470093 56.2449321,66.8231517 C56.2449321,67.0992941 56.4687897,67.3231517 56.7449321,67.3231517 Z M69.2876943,65.6863509 C69.5638367,65.6863509 69.7876943,65.4624933 69.7876943,65.1863509 C69.7876943,64.9102085 69.5638367,64.6863509 69.2876943,64.6863509 C69.0115519,64.6863509 68.7876943,64.9102085 68.7876943,65.1863509 C68.7876943,65.4624933 69.0115519,65.6863509 69.2876943,65.6863509 Z M52.3194877,68.7415613 C53.1479148,68.7415613 53.8194877,68.0699885 53.8194877,67.2415613 C53.8194877,66.4131341 53.1479148,65.7415613 52.3194877,65.7415613 C51.4910605,65.7415613 50.8194877,66.4131341 50.8194877,67.2415613 C50.8194877,68.0699885 51.4910605,68.7415613 52.3194877,68.7415613 Z M32.686944,64.9253814 C33.5153712,64.9253814 34.186944,64.2538086 34.186944,63.4253814 C34.186944,62.5969542 33.5153712,61.9253814 32.686944,61.9253814 C31.8585168,61.9253814 31.186944,62.5969542 31.186944,63.4253814 C31.186944,64.2538086 31.8585168,64.9253814 32.686944,64.9253814 Z" id="Oval-20-copy-4" transform="translate(43.319488, 67.241561) scale(-1, -1) rotate(-101.000000) translate(-43.319488, -67.241561) "></path>
                    <path d="M38,8 C39.1045696,8 40,7.10456955 40,6 C40,4.89543045 39.1045696,4 38,4 C36.8954304,4 36,4.89543045 36,6 C36,7.10456955 36.8954304,8 38,8 Z M30,8 C31.6568543,8 33,6.65685433 33,5 C33,3.34314567 31.6568543,2 30,2 C28.3431457,2 27,3.34314567 27,5 C27,6.65685433 28.3431457,8 30,8 Z M34,8 C34.5522848,8 35,7.55228478 35,7 C35,6.44771522 34.5522848,6 34,6 C33.4477152,6 33,6.44771522 33,7 C33,7.55228478 33.4477152,8 34,8 Z M21.5,8 C22.3284272,8 23,7.32842717 23,6.5 C23,5.67157283 22.3284272,5 21.5,5 C20.6715728,5 20,5.67157283 20,6.5 C20,7.32842717 20.6715728,8 21.5,8 Z M25,6 C26.1045696,6 27,5.10456955 27,4 C27,2.89543045 26.1045696,2 25,2 C23.8954304,2 23,2.89543045 23,4 C23,5.10456955 23.8954304,6 25,6 Z" id="Oval-20-copy-2" transform="translate(30.000000, 5.000000) scale(-1, -1) translate(-30.000000, -5.000000) "></path>
                    <path d="M42.5,10 C43.3284272,10 44,9.32842717 44,8.5 C44,7.67157283 43.3284272,7 42.5,7 C41.6715728,7 41,7.67157283 41,8.5 C41,9.32842717 41.6715728,10 42.5,10 Z M34.5,10 C35.8807119,10 37,8.88071194 37,7.5 C37,6.11928806 35.8807119,5 34.5,5 C33.1192881,5 32,6.11928806 32,7.5 C32,8.88071194 33.1192881,10 34.5,10 Z M39,9 C39.5522848,9 40,8.55228478 40,8 C40,7.44771522 39.5522848,7 39,7 C38.4477152,7 38,7.44771522 38,8 C38,8.55228478 38.4477152,9 39,9 Z M25.5,8 C25.7761424,8 26,7.77614239 26,7.5 C26,7.22385761 25.7761424,7 25.5,7 C25.2238576,7 25,7.22385761 25,7.5 C25,7.77614239 25.2238576,8 25.5,8 Z M29,8 C30.1045696,8 31,7.10456955 31,6 C31,4.89543045 30.1045696,4 29,4 C27.8954304,4 27,4.89543045 27,6 C27,7.10456955 27.8954304,8 29,8 Z" id="Oval-20-copy-2" transform="translate(34.500000, 7.000000) scale(-1, -1) translate(-34.500000, -7.000000) "></path>
                    <path d="M63,11 C64.1045696,11 65,10.1045696 65,9 C65,7.89543045 64.1045696,7 63,7 C61.8954304,7 61,7.89543045 61,9 C61,10.1045696 61.8954304,11 63,11 Z M55,11 C56.6568543,11 58,9.65685433 58,8 C58,6.34314567 56.6568543,5 55,5 C53.3431457,5 52,6.34314567 52,8 C52,9.65685433 53.3431457,11 55,11 Z M59,11 C59.5522848,11 60,10.5522848 60,10 C60,9.44771522 59.5522848,9 59,9 C58.4477152,9 58,9.44771522 58,10 C58,10.5522848 58.4477152,11 59,11 Z M46.5,11 C47.3284272,11 48,10.3284272 48,9.5 C48,8.67157283 47.3284272,8 46.5,8 C45.6715728,8 45,8.67157283 45,9.5 C45,10.3284272 45.6715728,11 46.5,11 Z M50,9 C51.1045696,9 52,8.10456955 52,7 C52,5.89543045 51.1045696,5 50,5 C48.8954304,5 48,5.89543045 48,7 C48,8.10456955 48.8954304,9 50,9 Z" id="Oval-20-copy-3" transform="translate(55.000000, 8.000000) scale(-1, -1) translate(-55.000000, -8.000000) "></path>
                    <path d="M78,7 C79.1045696,7 80,6.10456955 80,5 C80,3.89543045 79.1045696,3 78,3 C76.8954304,3 76,3.89543045 76,5 C76,6.10456955 76.8954304,7 78,7 Z M70,7 C71.6568543,7 73,5.65685433 73,4 C73,2.34314567 71.6568543,1 70,1 C68.3431457,1 67,2.34314567 67,4 C67,5.65685433 68.3431457,7 70,7 Z M74,7 C74.5522848,7 75,6.55228478 75,6 C75,5.44771522 74.5522848,5 74,5 C73.4477152,5 73,5.44771522 73,6 C73,6.55228478 73.4477152,7 74,7 Z M61.5,7 C62.3284272,7 63,6.32842717 63,5.5 C63,4.67157283 62.3284272,4 61.5,4 C60.6715728,4 60,4.67157283 60,5.5 C60,6.32842717 60.6715728,7 61.5,7 Z M65,5 C66.1045696,5 67,4.10456955 67,3 C67,1.89543045 66.1045696,1 65,1 C63.8954304,1 63,1.89543045 63,3 C63,4.10456955 63.8954304,5 65,5 Z" id="Oval-20-copy-3" transform="translate(70.000000, 4.000000) scale(1, -1) translate(-70.000000, -4.000000) "></path>
                    <path d="M53.5,27 C54.3284272,27 55,26.3284272 55,25.5 C55,24.6715728 54.3284272,24 53.5,24 C52.6715728,24 52,24.6715728 52,25.5 C52,26.3284272 52.6715728,27 53.5,27 Z M45.5,27 C46.8807119,27 48,25.8807119 48,24.5 C48,23.1192881 46.8807119,22 45.5,22 C44.1192881,22 43,23.1192881 43,24.5 C43,25.8807119 44.1192881,27 45.5,27 Z M50,26 C50.5522848,26 51,25.5522848 51,25 C51,24.4477152 50.5522848,24 50,24 C49.4477152,24 49,24.4477152 49,25 C49,25.5522848 49.4477152,26 50,26 Z M36.5,25 C36.7761424,25 37,24.7761424 37,24.5 C37,24.2238576 36.7761424,24 36.5,24 C36.2238576,24 36,24.2238576 36,24.5 C36,24.7761424 36.2238576,25 36.5,25 Z M40,25 C41.1045696,25 42,24.1045696 42,23 C42,21.8954304 41.1045696,21 40,21 C38.8954304,21 38,21.8954304 38,23 C38,24.1045696 38.8954304,25 40,25 Z" id="Oval-20-copy-3" transform="translate(45.500000, 24.000000) scale(1, -1) rotate(-282.000000) translate(-45.500000, -24.000000) "></path>
                    <path d="M50,15 C51.1045696,15 52,14.1045696 52,13 C52,11.8954304 51.1045696,11 50,11 C48.8954304,11 48,11.8954304 48,13 C48,14.1045696 48.8954304,15 50,15 Z M42,15 C43.6568543,15 45,13.6568543 45,12 C45,10.3431457 43.6568543,9 42,9 C40.3431457,9 39,10.3431457 39,12 C39,13.6568543 40.3431457,15 42,15 Z M46,15 C46.5522848,15 47,14.5522848 47,14 C47,13.4477152 46.5522848,13 46,13 C45.4477152,13 45,13.4477152 45,14 C45,14.5522848 45.4477152,15 46,15 Z M33.5,15 C34.3284272,15 35,14.3284272 35,13.5 C35,12.6715728 34.3284272,12 33.5,12 C32.6715728,12 32,12.6715728 32,13.5 C32,14.3284272 32.6715728,15 33.5,15 Z M37,13 C38.1045696,13 39,12.1045696 39,11 C39,9.89543045 38.1045696,9 37,9 C35.8954304,9 35,9.89543045 35,11 C35,12.1045696 35.8954304,13 37,13 Z" id="Oval-20-copy-4" transform="translate(42.000000, 12.000000) scale(1, -1) rotate(-7.000000) translate(-42.000000, -12.000000) "></path>
                    <path d="M58,18 C59.1045696,18 60,17.1045696 60,16 C60,14.8954304 59.1045696,14 58,14 C56.8954304,14 56,14.8954304 56,16 C56,17.1045696 56.8954304,18 58,18 Z M50,18 C51.6568543,18 53,16.6568543 53,15 C53,13.3431457 51.6568543,12 50,12 C48.3431457,12 47,13.3431457 47,15 C47,16.6568543 48.3431457,18 50,18 Z M54,18 C54.5522848,18 55,17.5522848 55,17 C55,16.4477152 54.5522848,16 54,16 C53.4477152,16 53,16.4477152 53,17 C53,17.5522848 53.4477152,18 54,18 Z M41.5,18 C42.3284272,18 43,17.3284272 43,16.5 C43,15.6715728 42.3284272,15 41.5,15 C40.6715728,15 40,15.6715728 40,16.5 C40,17.3284272 40.6715728,18 41.5,18 Z M45,16 C46.1045696,16 47,15.1045696 47,14 C47,12.8954304 46.1045696,12 45,12 C43.8954304,12 43,12.8954304 43,14 C43,15.1045696 43.8954304,16 45,16 Z" id="Oval-20-copy-5" transform="translate(50.000000, 15.000000) scale(1, -1) rotate(-125.000000) translate(-50.000000, -15.000000) "></path>
                </g>
            </g>
        </g>
    </g>
</svg>