<?xml version="1.0" encoding="UTF-8" standalone="no"?>
<svg width="798px" height="870px" viewBox="0 0 798 870" version="1.1" xmlns="http://www.w3.org/2000/svg" xmlns:xlink="http://www.w3.org/1999/xlink" xmlns:sketch="http://www.bohemiancoding.com/sketch/ns">
    <title>beer_JS2</title>
    <description>Created with Sketch (http://www.bohemiancoding.com/sketch)</description>
    <defs>
        <path d="M275.094527,164.579746 C275.242176,165.002822 275.389075,165.19189 275.535222,165.38152 L275.094527,164.579746 Z M294,219.189189 C294,269.342618 251.467054,310 199,310 C146.532946,310 104,269.342618 104,219.189189 L294,219.189189 Z" id="path-1"></path>
    </defs>
    <g id="Page-1" stroke="none" stroke-width="1" fill="none" fill-rule="evenodd" sketch:type="MSPage">
        <g id="beer_JS2" sketch:type="MSArtboardGroup">
            <g id="Group-copy" sketch:type="MSLayerGroup" transform="translate(305.500000, 311.500000) rotate(23.000000) translate(-305.500000, -311.500000) translate(-35.000000, -23.000000)">
                <path d="M360.395125,541.155516 C349.959636,526.385787 331.973279,526.163428 322.582249,541.197657 C322.582249,541.197657 321.929695,541.488845 320.922188,542.412089 C325.756619,550.435409 328.912949,563.657414 328.912949,578.60932 C328.912949,599.884548 322.522407,617.657288 314,621.93421 C319.377637,644.094255 329.677427,649 341.500002,649 C353.322577,649 363.622363,644.094255 369,621.93421 C360.477593,617.657288 354.087051,599.884548 354.087051,578.60932 C354.087051,563.650026 357.246501,550.422343 362.084979,542.4002 C361.060443,541.454095 360.395125,541.155516 360.395125,541.155516 Z" id="Oval-4" fill="#D8D8D8" sketch:type="MSShapeGroup"></path>
                <path d="M352.026682,618.143642 C348.3893,618.048488 344.711889,618 341,618 C337.625478,618 334.279452,618.040075 330.966093,618.118855 L330.966093,618.118855 C331.027655,618.327569 331.071737,618.539225 331.098084,618.753809 C332.545176,630.539424 279.948535,646.695646 213.620191,654.839742 C210.982713,655.163584 208.363237,655.469881 205.764412,655.758775 C204.603428,658.116178 204,660.534942 204,663 L478,663 C478,660.493605 477.376164,658.035069 476.176712,655.640231 C473.925666,655.386447 471.659462,655.119648 469.379809,654.839742 C403.051465,646.695646 350.454824,630.539424 351.901916,618.753809 C351.927221,618.547715 351.968885,618.344322 352.026682,618.143642 Z" id="Pied" fill="#D8D8D8" sketch:type="MSShapeGroup"></path>
                <path d="M491.732265,300.308288 C505.288174,323.800449 513,350.791394 513,379.5 C513,470.350846 435.769124,544 340.5,544 C245.230876,544 168,470.350846 168,379.5 C168,350.791394 175.711826,323.80045 189.267735,300.308288 C193.120564,295.209057 196.742751,289.724785 200.107718,283.895456 C201.372853,282.208981 202.670573,280.546253 204,278.908109 L204,278.908109 L204,276.776833 L204,276.776833 C219.041072,247.717636 228,211.18276 228,171.5 C228,145.981263 224.29515,121.764293 217.650507,100 L463.349493,100 C456.70485,121.764293 453,145.981263 453,171.5 C453,212.054475 462.356855,249.321247 478,278.681003 L478,280.152483 C478.982068,281.38663 479.946285,282.634405 480.892282,283.895457 C484.257249,289.724785 487.879436,295.209057 491.732265,300.308288 Z" id="corps" fill="#D8D8D8" sketch:type="MSShapeGroup"></path>
                <path d="M462.072632,260 C467.728271,278.978385 475.765717,289.353292 484.097444,303.02626 C496.164718,324.802603 503,349.641135 503,376.0075 C503,462.159783 430.022419,532 340,532 C249.977581,532 177,462.159783 177,376.0075" id="corps-copy" fill="#F6E9C2" sketch:type="MSShapeGroup"></path>
            </g>
            <g id="Group-copy-2" sketch:type="MSLayerGroup" transform="translate(427.000000, 433.000000)">
                <path d="M287.345367,176.086322 C294.785609,189.487779 299,204.773764 299,221 C299,269.967184 260.619594,310.371521 211.026743,316.261528 L211.026743,316.261528 C208.201581,320.954552 206.35714,328.687343 206.35714,337.431718 C206.35714,349.875654 210.092417,360.270975 215.07377,362.772558 C214.598185,364.733683 214.056738,366.46377 213.45631,367.987837 C224.981711,373.240909 247.509389,378.599675 273.715326,381.81736 C275.225985,382.002845 276.726506,382.178471 278.215423,382.344313 C278.732571,383.538738 279,384.759219 279,386 L119,386 C119,384.778434 119.259211,383.576543 119.760732,382.399822 C121.413953,382.217796 123.081734,382.023678 124.76206,381.81736 C150.664537,378.636935 172.97345,373.364729 184.616276,368.170364 L184.616276,368.170365 C183.986834,366.602284 183.420904,364.8124 182.92623,362.772558 C187.907583,360.270975 191.64286,349.875654 191.64286,337.431718 C191.64286,328.762587 189.830025,321.087706 187.045969,316.38335 C136.934956,310.952777 98,270.319673 98,221 C98,204.773762 102.214393,189.487774 109.654636,176.086316 L109.654632,176.086323 C112.498216,172.43576 115.134666,168.431054 117.533792,164.117606 C118.014862,163.493846 118.503643,162.875846 119,162.263733 L119,161.385909 C127.773958,144.44177 133,123.138636 133,100 C133,84.9993761 130.803577,70.7701844 126.867966,58 L270.132019,58 C266.196423,70.7701844 264,84.9993761 264,100 C264,124.004671 269.624564,146.03387 279,163.270018 L279,163.517997 C279.156196,163.717269 279.311601,163.917141 279.466209,164.117607 C281.865331,168.431049 284.501777,172.43575 287.345356,176.086308 Z" id="verre" stroke-opacity="0.513470818" stroke="#979797" stroke-width="2" sketch:type="MSShapeGroup"></path>
                <g id="corps-copy">
                    <use fill="none" sketch:type="MSShapeGroup" xlink:href="#path-1"></use>
                    <use fill="none" xlink:href="#path-1"></use>
                    <use fill="none" xlink:href="#path-1"></use>
                    <use fill-opacity="0.532111673" fill="#DFBE33" fill-rule="evenodd" xlink:href="#path-1"></use>
                </g>
                <path d="M292.726745,219 C292.726745,219 292.726746,206.799171 290.694565,196.87257 C288.662383,186.945969 287.336304,186.473058 282.406586,177.433445 C277.476868,168.393832 271.907689,169.266244 268.348633,160.013031 C264.789577,150.759818 265.474666,141.386172 265.474666,141.386172 C265.474666,141.386172 260.214148,136.017285 248.720498,141.386172 C237.22685,146.75506 242.102051,147.925653 233.716655,147.707842 C225.331259,147.490031 231.301902,136.294873 216.062791,140.537885 C200.823681,144.780897 200.692948,158.000835 190.770475,160.013031 C180.848004,162.025228 181.781127,147.114674 165.739625,150.743012 C149.698123,154.371351 152.789306,164.745423 145.193727,166.558225 C137.598148,168.371027 133.10321,157.552888 130.135842,156.633399 C127.168475,155.71391 123.057913,165.723 118.575128,172.711761 C114.092343,179.700524 112.60092,181.067863 110.054797,187.608959 C107.508673,194.150055 107.703103,194.181182 105.478343,201.816406 C103.253583,209.45163 103,219 103,219" id="mousse" stroke="#CACACA" sketch:type="MSShapeGroup"></path>
                <path d="M214,167 C217.865993,167 221,160.955844 221,153.5 C221,146.044156 217.865993,140 214,140 C210.134007,140 207,146.044156 207,153.5 C207,160.955844 210.134007,167 214,167 Z" id="Oval-19" stroke="#CACACA" sketch:type="MSShapeGroup" transform="translate(214.000000, 153.500000) rotate(45.000000) translate(-214.000000, -153.500000) "></path>
                <g id="Group" transform="translate(132.000000, 217.000000)" stroke-opacity="0.699391085" stroke="#FFFFFF" sketch:type="MSShapeGroup">
                    <path d="M17.5,6 C18.3284272,6 19,5.32842717 19,4.5 C19,3.67157283 18.3284272,3 17.5,3 C16.6715728,3 16,3.67157283 16,4.5 C16,5.32842717 16.6715728,6 17.5,6 Z M9.5,6 C10.8807119,6 12,4.88071194 12,3.5 C12,2.11928806 10.8807119,1 9.5,1 C8.11928806,1 7,2.11928806 7,3.5 C7,4.88071194 8.11928806,6 9.5,6 Z M14,5 C14.5522848,5 15,4.55228478 15,4 C15,3.44771522 14.5522848,3 14,3 C13.4477152,3 13,3.44771522 13,4 C13,4.55228478 13.4477152,5 14,5 Z M0.5,4 C0.776142389,4 1,3.77614239 1,3.5 C1,3.22385761 0.776142389,3 0.5,3 C0.223857611,3 0,3.22385761 0,3.5 C0,3.77614239 0.223857611,4 0.5,4 Z M4,4 C5.10456955,4 6,3.10456955 6,2 C6,0.895430446 5.10456955,0 4,0 C2.89543045,0 2,0.895430446 2,2 C2,3.10456955 2.89543045,4 4,4 Z" id="Oval-20"></path>
                    <path d="M37.5,7 C38.3284272,7 39,6.32842717 39,5.5 C39,4.67157283 38.3284272,4 37.5,4 C36.6715728,4 36,4.67157283 36,5.5 C36,6.32842717 36.6715728,7 37.5,7 Z M29.5,7 C30.8807119,7 32,5.88071194 32,4.5 C32,3.11928806 30.8807119,2 29.5,2 C28.1192881,2 27,3.11928806 27,4.5 C27,5.88071194 28.1192881,7 29.5,7 Z M34,6 C34.5522848,6 35,5.55228478 35,5 C35,4.44771522 34.5522848,4 34,4 C33.4477152,4 33,4.44771522 33,5 C33,5.55228478 33.4477152,6 34,6 Z M20.5,5 C20.7761424,5 21,4.77614239 21,4.5 C21,4.22385761 20.7761424,4 20.5,4 C20.2238576,4 20,4.22385761 20,4.5 C20,4.77614239 20.2238576,5 20.5,5 Z M24,5 C25.1045696,5 26,4.10456955 26,3 C26,1.89543045 25.1045696,1 24,1 C22.8954304,1 22,1.89543045 22,3 C22,4.10456955 22.8954304,5 24,5 Z" id="Oval-20-copy" transform="translate(29.500000, 4.000000) scale(-1, -1) translate(-29.500000, -4.000000) "></path>
                    <path d="M78.5,7 C79.3284272,7 80,6.32842717 80,5.5 C80,4.67157283 79.3284272,4 78.5,4 C77.6715728,4 77,4.67157283 77,5.5 C77,6.32842717 77.6715728,7 78.5,7 Z M70.5,7 C71.8807119,7 73,5.88071194 73,4.5 C73,3.11928806 71.8807119,2 70.5,2 C69.1192881,2 68,3.11928806 68,4.5 C68,5.88071194 69.1192881,7 70.5,7 Z M75,6 C75.5522848,6 76,5.55228478 76,5 C76,4.44771522 75.5522848,4 75,4 C74.4477152,4 74,4.44771522 74,5 C74,5.55228478 74.4477152,6 75,6 Z M61.5,5 C61.7761424,5 62,4.77614239 62,4.5 C62,4.22385761 61.7761424,4 61.5,4 C61.2238576,4 61,4.22385761 61,4.5 C61,4.77614239 61.2238576,5 61.5,5 Z M65,5 C66.1045696,5 67,4.10456955 67,3 C67,1.89543045 66.1045696,1 65,1 C63.8954304,1 63,1.89543045 63,3 C63,4.10456955 63.8954304,5 65,5 Z" id="Oval-20-copy-2" transform="translate(70.500000, 4.000000) scale(1, -1) rotate(-7.000000) translate(-70.500000, -4.000000) "></path>
                    <path d="M68.5,20.0797464 C69.3284272,20.0797464 70,19.4081735 70,18.5797464 C70,17.7513192 69.3284272,17.0797464 68.5,17.0797464 C67.6715728,17.0797464 67,17.7513192 67,18.5797464 C67,19.4081735 67.6715728,20.0797464 68.5,20.0797464 Z M60.5,20.0797464 C61.8807119,20.0797464 63,18.9604583 63,17.5797464 C63,16.1990344 61.8807119,15.0797464 60.5,15.0797464 C59.1192881,15.0797464 58,16.1990344 58,17.5797464 C58,18.9604583 59.1192881,20.0797464 60.5,20.0797464 Z M65,19.0797464 C65.5522848,19.0797464 66,18.6320311 66,18.0797464 C66,17.5274616 65.5522848,17.0797464 65,17.0797464 C64.4477152,17.0797464 64,17.5274616 64,18.0797464 C64,18.6320311 64.4477152,19.0797464 65,19.0797464 Z M51.5,18.0797464 C51.7761424,18.0797464 52,17.8558888 52,17.5797464 C52,17.303604 51.7761424,17.0797464 51.5,17.0797464 C51.2238576,17.0797464 51,17.303604 51,17.5797464 C51,17.8558888 51.2238576,18.0797464 51.5,18.0797464 Z M55,18.0797464 C56.1045696,18.0797464 57,17.1843159 57,16.0797464 C57,14.9751768 56.1045696,14.0797464 55,14.0797464 C53.8954304,14.0797464 53,14.9751768 53,16.0797464 C53,17.1843159 53.8954304,18.0797464 55,18.0797464 Z" id="Oval-20-copy-3" transform="translate(60.500000, 17.079746) scale(-1, -1) rotate(-101.000000) translate(-60.500000, -17.079746) "></path>
                    <path d="M85.3194877,70.7415613 C86.1479148,70.7415613 86.8194877,70.0699885 86.8194877,69.2415613 C86.8194877,68.4131341 86.1479148,67.7415613 85.3194877,67.7415613 C84.4910605,67.7415613 83.8194877,68.4131341 83.8194877,69.2415613 C83.8194877,70.0699885 84.4910605,70.7415613 85.3194877,70.7415613 Z M86.519506,75.049688 C87.3479332,75.049688 88.019506,74.3781152 88.019506,73.549688 C88.019506,72.7212609 87.3479332,72.049688 86.519506,72.049688 C85.6910789,72.049688 85.019506,72.7212609 85.019506,73.549688 C85.019506,74.3781152 85.6910789,75.049688 86.519506,75.049688 Z M88.4806318,69.0680149 C89.309059,69.0680149 89.9806318,68.396442 89.9806318,67.5680149 C89.9806318,66.7395877 89.309059,66.0680149 88.4806318,66.0680149 C87.6522047,66.0680149 86.9806318,66.7395877 86.9806318,67.5680149 C86.9806318,68.396442 87.6522047,69.0680149 88.4806318,69.0680149 Z M81.8194877,69.7415613 C82.3717724,69.7415613 82.8194877,69.2938461 82.8194877,68.7415613 C82.8194877,68.1892765 82.3717724,67.7415613 81.8194877,67.7415613 C81.2672029,67.7415613 80.8194877,68.1892765 80.8194877,68.7415613 C80.8194877,69.2938461 81.2672029,69.7415613 81.8194877,69.7415613 Z M37.4554554,62.1367837 C38.0077402,62.1367837 38.4554554,61.6890685 38.4554554,61.1367837 C38.4554554,60.5844989 38.0077402,60.1367837 37.4554554,60.1367837 C36.9031706,60.1367837 36.4554554,60.5844989 36.4554554,61.1367837 C36.4554554,61.6890685 36.9031706,62.1367837 37.4554554,62.1367837 Z M87.5184418,71.8680425 C88.0707265,71.8680425 88.5184418,71.4203272 88.5184418,70.8680425 C88.5184418,70.3157577 88.0707265,69.8680425 87.5184418,69.8680425 C86.966157,69.8680425 86.5184418,70.3157577 86.5184418,70.8680425 C86.5184418,71.4203272 86.966157,71.8680425 87.5184418,71.8680425 Z M67.5286695,67.5691251 C67.8048119,67.5691251 68.0286695,67.3452675 68.0286695,67.0691251 C68.0286695,66.7929827 67.8048119,66.5691251 67.5286695,66.5691251 C67.2525271,66.5691251 67.0286695,66.7929827 67.0286695,67.0691251 C67.0286695,67.3452675 67.2525271,67.5691251 67.5286695,67.5691251 Z M85.0071498,71.9853142 C85.2832922,71.9853142 85.5071498,71.7614566 85.5071498,71.4853142 C85.5071498,71.2091718 85.2832922,70.9853142 85.0071498,70.9853142 C84.7310074,70.9853142 84.5071498,71.2091718 84.5071498,71.4853142 C84.5071498,71.7614566 84.7310074,71.9853142 85.0071498,71.9853142 Z M76.7449321,67.3231517 C77.0210745,67.3231517 77.2449321,67.0992941 77.2449321,66.8231517 C77.2449321,66.5470093 77.0210745,66.3231517 76.7449321,66.3231517 C76.4687897,66.3231517 76.2449321,66.5470093 76.2449321,66.8231517 C76.2449321,67.0992941 76.4687897,67.3231517 76.7449321,67.3231517 Z M89.2876943,65.6863509 C89.5638367,65.6863509 89.7876943,65.4624933 89.7876943,65.1863509 C89.7876943,64.9102085 89.5638367,64.6863509 89.2876943,64.6863509 C89.0115519,64.6863509 88.7876943,64.9102085 88.7876943,65.1863509 C88.7876943,65.4624933 89.0115519,65.6863509 89.2876943,65.6863509 Z M72.3194877,68.7415613 C73.1479148,68.7415613 73.8194877,68.0699885 73.8194877,67.2415613 C73.8194877,66.4131341 73.1479148,65.7415613 72.3194877,65.7415613 C71.4910605,65.7415613 70.8194877,66.4131341 70.8194877,67.2415613 C70.8194877,68.0699885 71.4910605,68.7415613 72.3194877,68.7415613 Z M52.686944,64.9253814 C53.5153712,64.9253814 54.186944,64.2538086 54.186944,63.4253814 C54.186944,62.5969542 53.5153712,61.9253814 52.686944,61.9253814 C51.8585168,61.9253814 51.186944,62.5969542 51.186944,63.4253814 C51.186944,64.2538086 51.8585168,64.9253814 52.686944,64.9253814 Z" id="Oval-20-copy-4" transform="translate(63.319488, 67.241561) scale(-1, -1) rotate(-101.000000) translate(-63.319488, -67.241561) "></path>
                    <path d="M58,8 C59.1045696,8 60,7.10456955 60,6 C60,4.89543045 59.1045696,4 58,4 C56.8954304,4 56,4.89543045 56,6 C56,7.10456955 56.8954304,8 58,8 Z M50,8 C51.6568543,8 53,6.65685433 53,5 C53,3.34314567 51.6568543,2 50,2 C48.3431457,2 47,3.34314567 47,5 C47,6.65685433 48.3431457,8 50,8 Z M54,8 C54.5522848,8 55,7.55228478 55,7 C55,6.44771522 54.5522848,6 54,6 C53.4477152,6 53,6.44771522 53,7 C53,7.55228478 53.4477152,8 54,8 Z M41.5,8 C42.3284272,8 43,7.32842717 43,6.5 C43,5.67157283 42.3284272,5 41.5,5 C40.6715728,5 40,5.67157283 40,6.5 C40,7.32842717 40.6715728,8 41.5,8 Z M45,6 C46.1045696,6 47,5.10456955 47,4 C47,2.89543045 46.1045696,2 45,2 C43.8954304,2 43,2.89543045 43,4 C43,5.10456955 43.8954304,6 45,6 Z" id="Oval-20-copy-2" transform="translate(50.000000, 5.000000) scale(-1, -1) translate(-50.000000, -5.000000) "></path>
                    <path d="M62.5,10 C63.3284272,10 64,9.32842717 64,8.5 C64,7.67157283 63.3284272,7 62.5,7 C61.6715728,7 61,7.67157283 61,8.5 C61,9.32842717 61.6715728,10 62.5,10 Z M54.5,10 C55.8807119,10 57,8.88071194 57,7.5 C57,6.11928806 55.8807119,5 54.5,5 C53.1192881,5 52,6.11928806 52,7.5 C52,8.88071194 53.1192881,10 54.5,10 Z M59,9 C59.5522848,9 60,8.55228478 60,8 C60,7.44771522 59.5522848,7 59,7 C58.4477152,7 58,7.44771522 58,8 C58,8.55228478 58.4477152,9 59,9 Z M45.5,8 C45.7761424,8 46,7.77614239 46,7.5 C46,7.22385761 45.7761424,7 45.5,7 C45.2238576,7 45,7.22385761 45,7.5 C45,7.77614239 45.2238576,8 45.5,8 Z M49,8 C50.1045696,8 51,7.10456955 51,6 C51,4.89543045 50.1045696,4 49,4 C47.8954304,4 47,4.89543045 47,6 C47,7.10456955 47.8954304,8 49,8 Z" id="Oval-20-copy-2" transform="translate(54.500000, 7.000000) scale(-1, -1) translate(-54.500000, -7.000000) "></path>
                    <path d="M83,11 C84.1045696,11 85,10.1045696 85,9 C85,7.89543045 84.1045696,7 83,7 C81.8954304,7 81,7.89543045 81,9 C81,10.1045696 81.8954304,11 83,11 Z M75,11 C76.6568543,11 78,9.65685433 78,8 C78,6.34314567 76.6568543,5 75,5 C73.3431457,5 72,6.34314567 72,8 C72,9.65685433 73.3431457,11 75,11 Z M79,11 C79.5522848,11 80,10.5522848 80,10 C80,9.44771522 79.5522848,9 79,9 C78.4477152,9 78,9.44771522 78,10 C78,10.5522848 78.4477152,11 79,11 Z M66.5,11 C67.3284272,11 68,10.3284272 68,9.5 C68,8.67157283 67.3284272,8 66.5,8 C65.6715728,8 65,8.67157283 65,9.5 C65,10.3284272 65.6715728,11 66.5,11 Z M70,9 C71.1045696,9 72,8.10456955 72,7 C72,5.89543045 71.1045696,5 70,5 C68.8954304,5 68,5.89543045 68,7 C68,8.10456955 68.8954304,9 70,9 Z" id="Oval-20-copy-3" transform="translate(75.000000, 8.000000) scale(-1, -1) translate(-75.000000, -8.000000) "></path>
                    <path d="M98,7 C99.1045696,7 100,6.10456955 100,5 C100,3.89543045 99.1045696,3 98,3 C96.8954304,3 96,3.89543045 96,5 C96,6.10456955 96.8954304,7 98,7 Z M90,7 C91.6568543,7 93,5.65685433 93,4 C93,2.34314567 91.6568543,1 90,1 C88.3431457,1 87,2.34314567 87,4 C87,5.65685433 88.3431457,7 90,7 Z M94,7 C94.5522848,7 95,6.55228478 95,6 C95,5.44771522 94.5522848,5 94,5 C93.4477152,5 93,5.44771522 93,6 C93,6.55228478 93.4477152,7 94,7 Z M81.5,7 C82.3284272,7 83,6.32842717 83,5.5 C83,4.67157283 82.3284272,4 81.5,4 C80.6715728,4 80,4.67157283 80,5.5 C80,6.32842717 80.6715728,7 81.5,7 Z M85,5 C86.1045696,5 87,4.10456955 87,3 C87,1.89543045 86.1045696,1 85,1 C83.8954304,1 83,1.89543045 83,3 C83,4.10456955 83.8954304,5 85,5 Z" id="Oval-20-copy-3" transform="translate(90.000000, 4.000000) scale(1, -1) translate(-90.000000, -4.000000) "></path>
                    <path d="M73.5,27 C74.3284272,27 75,26.3284272 75,25.5 C75,24.6715728 74.3284272,24 73.5,24 C72.6715728,24 72,24.6715728 72,25.5 C72,26.3284272 72.6715728,27 73.5,27 Z M65.5,27 C66.8807119,27 68,25.8807119 68,24.5 C68,23.1192881 66.8807119,22 65.5,22 C64.1192881,22 63,23.1192881 63,24.5 C63,25.8807119 64.1192881,27 65.5,27 Z M70,26 C70.5522848,26 71,25.5522848 71,25 C71,24.4477152 70.5522848,24 70,24 C69.4477152,24 69,24.4477152 69,25 C69,25.5522848 69.4477152,26 70,26 Z M56.5,25 C56.7761424,25 57,24.7761424 57,24.5 C57,24.2238576 56.7761424,24 56.5,24 C56.2238576,24 56,24.2238576 56,24.5 C56,24.7761424 56.2238576,25 56.5,25 Z M60,25 C61.1045696,25 62,24.1045696 62,23 C62,21.8954304 61.1045696,21 60,21 C58.8954304,21 58,21.8954304 58,23 C58,24.1045696 58.8954304,25 60,25 Z" id="Oval-20-copy-3" transform="translate(65.500000, 24.000000) scale(1, -1) rotate(-282.000000) translate(-65.500000, -24.000000) "></path>
                    <path d="M70,15 C71.1045696,15 72,14.1045696 72,13 C72,11.8954304 71.1045696,11 70,11 C68.8954304,11 68,11.8954304 68,13 C68,14.1045696 68.8954304,15 70,15 Z M62,15 C63.6568543,15 65,13.6568543 65,12 C65,10.3431457 63.6568543,9 62,9 C60.3431457,9 59,10.3431457 59,12 C59,13.6568543 60.3431457,15 62,15 Z M66,15 C66.5522848,15 67,14.5522848 67,14 C67,13.4477152 66.5522848,13 66,13 C65.4477152,13 65,13.4477152 65,14 C65,14.5522848 65.4477152,15 66,15 Z M53.5,15 C54.3284272,15 55,14.3284272 55,13.5 C55,12.6715728 54.3284272,12 53.5,12 C52.6715728,12 52,12.6715728 52,13.5 C52,14.3284272 52.6715728,15 53.5,15 Z M57,13 C58.1045696,13 59,12.1045696 59,11 C59,9.89543045 58.1045696,9 57,9 C55.8954304,9 55,9.89543045 55,11 C55,12.1045696 55.8954304,13 57,13 Z" id="Oval-20-copy-4" transform="translate(62.000000, 12.000000) scale(1, -1) rotate(-7.000000) translate(-62.000000, -12.000000) "></path>
                </g>
            </g>
        </g>
    </g>
</svg>