<?xml version="1.0" encoding="UTF-8" standalone="no"?>
<svg width="447px" height="107px" viewBox="0 0 447 107" version="1.1" xmlns="http://www.w3.org/2000/svg" xmlns:xlink="http://www.w3.org/1999/xlink" xmlns:sketch="http://www.bohemiancoding.com/sketch/ns">
    <title>Mutualab_logo</title>
    <description>Created with Sketch (http://www.bohemiancoding.com/sketch)</description>
    <defs>
        <path id="path-1" d="M0.06,0.05 L446.226,0.05 L446.226,106.94 L0.06,106.94"></path>
        <mask id="mask-2" sketch:name="Clip 52" fill="white">
            <use xlink:href="#path-1"></use>
        </mask>
    </defs>
    <g id="Page-1" stroke="none" stroke-width="1" fill="none" fill-rule="evenodd" sketch:type="MSPage">
        <g id="LOGO_MUTUALAB_FINAL_Baseline2_Lucie" sketch:type="MSLayerGroup">
            <path d="M405.454,66.17 C402.684,66.17 400.439,63.926 400.439,61.157 L400.439,17.541 C400.439,14.771 402.684,12.527 405.454,12.527 C408.221,12.527 410.467,14.771 410.467,17.541 L410.467,61.157 C410.467,63.926 408.221,66.17 405.454,66.17" id="Fill-1" fill="#F9C623" sketch:type="MSShapeGroup"></path>
            <path d="M427.21,22.554 L410.467,22.554 L410.467,17.541 C410.467,14.771 408.221,12.527 405.454,12.527 L426.442,12.527 C424.039,12.897 422.197,14.975 422.197,17.481 C422.197,20.251 424.443,22.495 427.21,22.495 C427.397,22.495 427.581,22.505 427.763,22.523 C427.582,22.543 427.397,22.554 427.21,22.554 M400.45,17.203 C400.624,14.591 402.798,12.527 405.453,12.527 L405.454,12.527 C402.798,12.527 400.624,14.591 400.45,17.203" id="Fill-2" fill="#00A2DA" sketch:type="MSShapeGroup"></path>
            <path d="M410.467,22.554 L405.453,22.554 C402.684,22.554 400.439,20.31 400.439,17.541 C400.439,17.427 400.443,17.314 400.45,17.203 C400.624,14.591 402.798,12.527 405.454,12.527 C408.221,12.527 410.467,14.771 410.467,17.541 L410.467,22.554" id="Fill-3" fill="#008347" sketch:type="MSShapeGroup"></path>
            <path d="M429.705,66.17 L405.454,66.17 C402.684,66.17 400.439,63.926 400.439,61.157 C400.439,63.926 402.684,66.17 405.454,66.17 C408.221,66.17 410.467,63.926 410.467,61.157 L410.467,56.143 L429.705,56.143 C426.938,56.143 424.692,58.389 424.692,61.157 C424.692,63.926 426.938,66.17 429.705,66.17" id="Fill-4" fill="#F9C623" sketch:type="MSShapeGroup"></path>
            <path d="M405.454,66.17 C402.684,66.17 400.439,63.926 400.439,61.157 C400.439,58.389 402.684,56.143 405.454,56.143 L410.467,56.143 L410.467,61.157 C410.467,63.926 408.221,66.17 405.454,66.17" id="Fill-5" fill="#EFA72C" sketch:type="MSShapeGroup"></path>
            <path d="M427.218,43.154 C427.242,43.154 427.266,43.153 427.289,43.153 L427.342,43.153 C427.301,43.153 427.26,43.154 427.218,43.154 M439.797,36.576 C437.004,34.415 433.502,33.127 429.704,33.127 L427.29,33.127 L427.214,33.127 L427.21,33.127 C430.143,33.127 432.527,30.742 432.527,27.812 C432.527,25.066 430.437,22.801 427.763,22.523 C430.272,22.248 432.226,20.123 432.226,17.541 C432.226,14.771 429.979,12.527 427.21,12.527 L426.442,12.527 C426.693,12.489 426.949,12.469 427.21,12.469 C435.67,12.469 442.554,19.351 442.554,27.812 C442.554,31.068 441.534,34.09 439.797,36.576" id="Fill-6" fill="#84BF41" sketch:type="MSShapeGroup"></path>
            <path d="M427.763,22.523 C427.581,22.505 427.397,22.495 427.21,22.495 C424.443,22.495 422.197,20.251 422.197,17.481 C422.197,14.975 424.039,12.897 426.442,12.527 L427.21,12.527 C429.979,12.527 432.226,14.771 432.226,17.541 C432.226,20.123 430.272,22.248 427.763,22.523" id="Fill-7" fill="#009849" sketch:type="MSShapeGroup"></path>
            <path d="M429.705,66.17 L429.705,66.17 C432.475,66.17 434.719,63.926 434.719,61.157 C434.719,58.389 432.475,56.143 429.705,56.143 C433.288,56.143 436.203,53.229 436.203,49.649 C436.203,46.068 433.288,43.153 429.705,43.153 L427.342,43.153 C432.492,43.11 437.045,40.516 439.797,36.576 C443.706,39.601 446.226,44.336 446.226,49.649 C446.226,58.759 438.816,66.17 429.705,66.17" id="Fill-8" fill="#E46D9F" sketch:type="MSShapeGroup"></path>
            <path d="M429.705,66.17 L429.705,66.17 C426.938,66.17 424.692,63.926 424.692,61.157 C424.692,58.389 426.938,56.143 429.705,56.143 C432.475,56.143 434.719,58.389 434.719,61.157 C434.719,63.926 432.475,66.17 429.705,66.17" id="Fill-9" fill="#E15C29" sketch:type="MSShapeGroup"></path>
            <path d="M427.342,43.153 L427.289,43.153 C430.023,43.113 432.228,40.885 432.228,38.141 C432.228,35.398 430.023,33.168 427.29,33.127 L429.704,33.127 C433.502,33.127 437.004,34.415 439.797,36.576 C437.045,40.516 432.492,43.11 427.342,43.153" id="Fill-10" fill="#855C37" sketch:type="MSShapeGroup"></path>
            <path d="M427.214,43.154 L410.467,43.154 L410.467,33.127 L427.21,33.127 C424.443,33.127 422.197,35.372 422.197,38.141 C422.197,40.91 424.443,43.154 427.21,43.154 L427.218,43.154 L427.214,43.154" id="Fill-11" fill="#DB3931" sketch:type="MSShapeGroup"></path>
            <path d="M410.467,43.154 L405.453,43.154 C402.684,43.154 400.439,40.91 400.439,38.141 C400.439,35.372 402.684,33.127 405.453,33.127 L410.467,33.127 L410.467,43.154" id="Fill-12" fill="#DB352A" sketch:type="MSShapeGroup"></path>
            <path d="M427.21,43.154 C424.443,43.154 422.197,40.91 422.197,38.141 C422.197,35.372 424.443,33.127 427.21,33.127 L427.214,33.127 L427.29,33.127 L427.211,33.127 C424.442,33.129 422.201,35.374 422.201,38.142 C422.203,40.911 424.447,43.153 427.214,43.153 L427.289,43.153 C427.266,43.153 427.242,43.154 427.218,43.154 L427.21,43.154" id="Fill-13" fill="#813B33" sketch:type="MSShapeGroup"></path>
            <path d="M427.289,43.153 L427.214,43.153 C424.447,43.153 422.203,40.911 422.201,38.142 C422.201,35.374 424.442,33.129 427.211,33.127 L427.29,33.127 C430.023,33.168 432.228,35.398 432.228,38.141 C432.228,40.885 430.023,43.113 427.289,43.153" id="Fill-14" fill="#803332" sketch:type="MSShapeGroup"></path>
            <path d="M233.529,66.17 C232.766,66.17 231.99,65.996 231.263,65.627 C228.793,64.373 227.808,61.354 229.063,58.885 L251.216,15.27 C251.242,15.22 251.268,15.17 251.295,15.121 C250.524,16.526 250.437,18.275 251.215,19.811 L255.686,28.613 L246.61,46.479 L238.45,46.479 C235.683,46.479 233.436,48.722 233.436,51.491 C233.436,54.262 235.683,56.505 238.45,56.505 L241.517,56.505 L238.001,63.426 C237.12,65.168 235.356,66.17 233.529,66.17 M260.184,15.324 L260.157,15.27 C259.272,13.529 257.51,12.526 255.682,12.526 C255.602,12.526 255.522,12.528 255.442,12.532 C255.525,12.528 255.608,12.526 255.691,12.526 C256.455,12.526 257.23,12.701 257.958,13.071 C258.963,13.581 259.722,14.384 260.184,15.324 M251.3,15.112 C251.301,15.11 251.302,15.109 251.302,15.108 C251.302,15.109 251.301,15.11 251.3,15.112 M252.707,13.507 C252.708,13.506 252.709,13.506 252.709,13.505 C252.709,13.506 252.708,13.506 252.707,13.507 M252.724,13.495 C252.727,13.493 252.73,13.49 252.733,13.488 C252.73,13.49 252.727,13.492 252.724,13.495 M252.737,13.485 C252.961,13.323 253.197,13.179 253.443,13.057 C253.434,13.061 253.425,13.066 253.415,13.071 C253.175,13.193 252.949,13.332 252.737,13.485 M253.454,13.051 L253.455,13.051 L253.454,13.051" id="Fill-15" fill="#DB3931" sketch:type="MSShapeGroup"></path>
            <path d="M277.843,66.17 C276.016,66.17 274.254,65.168 273.37,63.426 L269.854,56.505 L272.929,56.505 C275.698,56.505 277.943,54.262 277.943,51.491 C277.943,48.722 275.698,46.479 272.929,46.479 L264.761,46.479 L255.686,28.613 L260.157,19.811 C260.899,18.348 260.856,16.692 260.184,15.324 L282.31,58.885 C283.565,61.354 282.58,64.373 280.11,65.627 C279.384,65.996 278.608,66.17 277.843,66.17 M251.295,15.121 C251.297,15.118 251.299,15.115 251.3,15.112 C251.299,15.115 251.297,15.118 251.295,15.121 M251.302,15.108 C251.644,14.491 252.117,13.942 252.707,13.507 C252.145,13.922 251.661,14.46 251.302,15.108 M252.709,13.505 C252.714,13.502 252.719,13.498 252.724,13.495 C252.719,13.498 252.714,13.502 252.709,13.505 M252.733,13.488 C252.734,13.487 252.736,13.486 252.737,13.485 C252.736,13.486 252.734,13.487 252.733,13.488 M253.443,13.057 C253.447,13.055 253.45,13.053 253.454,13.051 C253.45,13.053 253.447,13.055 253.443,13.057 M253.455,13.051 C254.095,12.733 254.771,12.564 255.442,12.532 C254.75,12.566 254.073,12.744 253.455,13.051" id="Fill-16" fill="#F9C623" sketch:type="MSShapeGroup"></path>
            <path d="M255.686,28.613 L251.215,19.811 C250.437,18.275 250.524,16.526 251.295,15.121 C251.297,15.118 251.299,15.115 251.3,15.112 C251.301,15.11 251.302,15.109 251.302,15.108 C251.661,14.46 252.145,13.922 252.707,13.507 C252.708,13.506 252.709,13.506 252.709,13.505 C252.714,13.502 252.719,13.498 252.724,13.495 C252.727,13.492 252.73,13.49 252.733,13.488 C252.734,13.487 252.736,13.486 252.737,13.485 C252.949,13.332 253.175,13.193 253.415,13.071 C253.425,13.066 253.434,13.061 253.443,13.057 C253.447,13.055 253.45,13.053 253.454,13.051 L253.455,13.051 C254.073,12.744 254.75,12.566 255.442,12.532 C255.522,12.528 255.602,12.526 255.682,12.526 C257.51,12.526 259.272,13.529 260.157,15.27 L260.184,15.324 C260.856,16.692 260.899,18.348 260.157,19.811 L255.686,28.613" id="Fill-17" fill="#DB352A" sketch:type="MSShapeGroup"></path>
            <path d="M269.854,56.505 L241.517,56.505 L246.61,46.479 L264.761,46.479 L269.854,56.505" id="Fill-18" fill="#00A2DA" sketch:type="MSShapeGroup"></path>
            <path d="M241.517,56.505 L238.45,56.505 C235.683,56.505 233.436,54.262 233.436,51.491 C233.436,48.722 235.683,46.479 238.45,46.479 L246.61,46.479 L241.517,56.505" id="Fill-19" fill="#2D3839" sketch:type="MSShapeGroup"></path>
            <path d="M272.929,56.505 L269.854,56.505 L264.761,46.479 L272.929,46.479 C275.698,46.479 277.943,48.722 277.943,51.491 C277.943,54.262 275.698,56.505 272.929,56.505" id="Fill-20" fill="#008347" sketch:type="MSShapeGroup"></path>
            <path d="M26.263,51.28 L26.259,51.28 C27.047,51.279 27.83,51.094 28.538,50.733 C27.818,51.101 27.038,51.28 26.263,51.28 M24.381,50.916 C23.646,50.62 22.974,50.147 22.433,49.507 C22.663,49.778 22.926,50.03 23.221,50.254 C23.586,50.532 23.976,50.752 24.381,50.916 M29.689,49.924 C29.889,49.736 30.076,49.529 30.248,49.303 L30.314,49.217 C30.131,49.469 29.923,49.705 29.689,49.924 M22.179,49.181 L10.139,32.816 L10.139,17.541 C10.139,16.449 9.79,15.438 9.197,14.615 L26.329,37.902 L22.271,43.229 C20.906,45.022 20.934,47.44 22.179,49.181 M0.112,17.573 L0.112,17.46 L0.112,17.541 L0.112,17.573 M0.87,14.889 C1.063,14.578 1.293,14.286 1.558,14.018 C1.298,14.281 1.067,14.573 0.87,14.889 M9.011,14.372 C8.563,13.824 8.001,13.372 7.361,13.052 C7.983,13.361 8.548,13.803 9.011,14.372 M4.308,12.593 C4.31,12.593 4.312,12.592 4.315,12.592 C4.312,12.593 4.31,12.593 4.308,12.593 M4.316,12.592 C4.583,12.548 4.853,12.527 5.122,12.527 C5.182,12.527 5.242,12.528 5.302,12.53 C5.243,12.528 5.184,12.527 5.125,12.527 C4.85,12.527 4.579,12.549 4.316,12.592" id="Fill-21" fill="#84BF41" sketch:type="MSShapeGroup"></path>
            <path d="M26.255,51.28 C25.622,51.28 24.985,51.16 24.381,50.916 C24.978,51.156 25.617,51.279 26.259,51.28 L26.255,51.28 M28.538,50.733 C28.777,50.611 29.008,50.468 29.231,50.304 C29.393,50.185 29.546,50.058 29.689,49.924 C29.34,50.252 28.952,50.522 28.538,50.733 M22.433,49.507 C22.343,49.402 22.259,49.293 22.179,49.181 L22.221,49.238 C22.289,49.331 22.36,49.42 22.433,49.507 M30.314,49.217 C31.565,47.498 31.624,45.1 30.297,43.296 L26.329,37.902 L44.081,14.595 C43.48,15.422 43.125,16.44 43.125,17.541 L43.125,32.397 L30.314,49.217" id="Fill-22" fill="#DB3931" sketch:type="MSShapeGroup"></path>
            <path d="M26.259,51.28 C25.617,51.279 24.978,51.156 24.381,50.916 C23.976,50.752 23.586,50.532 23.221,50.254 C22.926,50.03 22.663,49.778 22.433,49.507 C22.36,49.42 22.289,49.331 22.221,49.238 L22.179,49.181 C20.934,47.44 20.906,45.022 22.271,43.229 L26.329,37.902 L30.297,43.296 C31.624,45.1 31.565,47.498 30.314,49.217 L30.248,49.303 C30.076,49.529 29.889,49.736 29.689,49.924 C29.546,50.058 29.393,50.185 29.231,50.304 C29.008,50.468 28.777,50.611 28.538,50.733 C27.83,51.094 27.047,51.279 26.259,51.28" id="Fill-23" fill="#813B33" sketch:type="MSShapeGroup"></path>
            <path d="M53.153,17.576 L53.153,17.541 C53.153,17.503 53.152,17.466 53.152,17.428 C53.153,17.478 53.153,17.527 53.153,17.576 M53.152,17.426 C53.152,17.424 53.151,17.423 53.151,17.422 C53.151,17.423 53.152,17.424 53.152,17.426 M52.597,15.243 C52.311,14.69 51.924,14.196 51.462,13.787 C51.939,14.208 52.319,14.704 52.597,15.243 M44.652,13.938 C44.992,13.608 45.371,13.334 45.775,13.118 C45.363,13.339 44.985,13.616 44.652,13.938 M48.822,12.573 C48.598,12.543 48.37,12.527 48.139,12.527 C48.107,12.527 48.076,12.527 48.044,12.528 C48.077,12.527 48.109,12.527 48.142,12.527 C48.369,12.527 48.596,12.542 48.822,12.573 M48.034,12.528 L48.039,12.528 L48.034,12.528" id="Fill-24" fill="#DB3931" sketch:type="MSShapeGroup"></path>
            <path d="M48.139,66.17 C45.371,66.17 43.125,63.926 43.125,61.157 L43.125,32.397 L52.127,20.578 C52.812,19.68 53.146,18.625 53.153,17.576 L53.153,61.157 C53.153,63.926 50.907,66.17 48.139,66.17 M53.152,17.428 L53.152,17.426 L53.152,17.428 M53.151,17.422 C53.133,16.667 52.945,15.921 52.597,15.243 C52.935,15.898 53.133,16.638 53.151,17.422 M44.081,14.595 C44.252,14.36 44.444,14.14 44.652,13.938 C44.474,14.111 44.306,14.3 44.151,14.504 L44.081,14.595 M51.462,13.787 C51.371,13.706 51.276,13.628 51.177,13.553 C50.464,13.009 49.651,12.686 48.822,12.573 C49.827,12.71 50.738,13.145 51.462,13.787 M45.775,13.118 C46.45,12.757 47.218,12.545 48.034,12.528 C47.25,12.545 46.474,12.745 45.775,13.118 M48.039,12.528 L48.044,12.528 L48.039,12.528" id="Fill-25" fill="#F9C623" sketch:type="MSShapeGroup"></path>
            <path d="M43.125,32.397 L43.125,17.541 C43.125,16.44 43.48,15.422 44.081,14.595 L44.151,14.504 C44.306,14.3 44.474,14.111 44.652,13.938 C44.985,13.616 45.363,13.339 45.775,13.118 C46.474,12.745 47.25,12.545 48.034,12.528 L48.039,12.528 L48.044,12.528 C48.076,12.527 48.107,12.527 48.139,12.527 C48.37,12.527 48.598,12.543 48.822,12.573 C49.651,12.686 50.464,13.009 51.177,13.553 C51.276,13.628 51.371,13.706 51.462,13.787 C51.924,14.196 52.311,14.69 52.597,15.243 C52.945,15.921 53.133,16.667 53.151,17.422 C53.151,17.423 53.152,17.424 53.152,17.426 L53.152,17.428 C53.152,17.466 53.153,17.503 53.153,17.541 L53.153,17.576 C53.146,18.625 52.812,19.68 52.127,20.578 L43.125,32.397" id="Fill-26" fill="#DB352A" sketch:type="MSShapeGroup"></path>
            <path d="M5.125,66.17 C2.357,66.17 0.112,63.926 0.112,61.157 L0.112,17.573 C0.117,18.595 0.435,19.625 1.087,20.511 L10.139,32.816 L10.139,61.157 C10.139,63.926 7.894,66.17 5.125,66.17 M0.112,17.46 C0.127,16.517 0.403,15.637 0.87,14.889 C0.385,15.667 0.128,16.558 0.112,17.46 M9.197,14.615 L9.164,14.569 C9.114,14.502 9.063,14.436 9.011,14.372 C9.076,14.452 9.138,14.532 9.197,14.615 M1.558,14.018 C1.559,14.016 1.561,14.015 1.563,14.013 L1.558,14.018 M1.563,14.013 C2.29,13.279 3.243,12.768 4.308,12.593 C3.552,12.718 2.814,13.018 2.155,13.503 C1.941,13.66 1.744,13.831 1.563,14.013 M7.361,13.052 C6.718,12.732 6.014,12.556 5.302,12.53 C6.04,12.556 6.738,12.741 7.361,13.052 M4.315,12.592 L4.316,12.592 L4.315,12.592" id="Fill-27" fill="#00A2DA" sketch:type="MSShapeGroup"></path>
            <path d="M10.139,32.816 L1.087,20.511 C0.435,19.625 0.117,18.595 0.112,17.573 L0.112,17.541 L0.112,17.46 C0.128,16.558 0.385,15.667 0.87,14.889 C1.067,14.573 1.298,14.281 1.558,14.018 L1.563,14.013 C1.744,13.831 1.941,13.66 2.155,13.503 C2.814,13.018 3.552,12.718 4.308,12.593 C4.31,12.593 4.312,12.593 4.315,12.592 L4.316,12.592 C4.579,12.549 4.85,12.527 5.125,12.527 C5.184,12.527 5.243,12.528 5.302,12.53 C6.014,12.556 6.718,12.732 7.361,13.052 C8.001,13.372 8.563,13.824 9.011,14.372 C9.063,14.436 9.114,14.502 9.164,14.569 L9.197,14.615 C9.79,15.438 10.139,16.449 10.139,17.541 L10.139,32.816" id="Fill-28" fill="#009849" sketch:type="MSShapeGroup"></path>
            <path d="M293.612,61.157 L293.612,17.54 C293.612,14.771 295.857,12.527 298.625,12.527 C301.394,12.527 303.639,14.771 303.639,17.54 L303.639,56.143 L298.625,56.143 C295.857,56.143 293.612,58.387 293.612,61.157" id="Fill-29" fill="#F9C623" sketch:type="MSShapeGroup"></path>
            <path d="M324.445,66.17 L298.625,66.17 C295.857,66.17 293.612,63.926 293.612,61.157 C293.612,63.926 295.857,66.17 298.625,66.17 C301.394,66.17 303.639,63.926 303.639,61.157 L303.639,56.143 L324.445,56.143 C327.212,56.143 329.457,58.387 329.457,61.157 C329.457,63.926 327.212,66.17 324.445,66.17" id="Fill-30" fill="#00A2DA" sketch:type="MSShapeGroup"></path>
            <path d="M298.625,66.17 C295.857,66.17 293.612,63.926 293.612,61.157 C293.612,58.387 295.857,56.143 298.625,56.143 L303.639,56.143 L303.639,61.157 C303.639,63.926 301.394,66.17 298.625,66.17" id="Fill-31" fill="#008347" sketch:type="MSShapeGroup"></path>
            <path d="M143.039,66.17 C140.27,66.17 138.024,63.926 138.024,61.157 L138.024,22.554 L148.051,22.554 L148.051,61.157 C148.051,63.926 145.807,66.17 143.039,66.17" id="Fill-32" fill="#F9C623" sketch:type="MSShapeGroup"></path>
            <path d="M161.336,22.554 L148.051,22.554 L148.051,17.541 C148.051,14.771 145.807,12.528 143.039,12.528 L161.336,12.528 C164.105,12.528 166.351,14.771 166.351,17.541 C166.351,20.31 164.105,22.554 161.336,22.554 M138.024,22.554 L124.74,22.554 C121.971,22.554 119.726,20.31 119.726,17.541 C119.726,14.771 121.971,12.528 124.74,12.528 L143.039,12.528 C140.27,12.528 138.024,14.771 138.024,17.541 L138.024,22.554" id="Fill-33" fill="#84BF41" sketch:type="MSShapeGroup"></path>
            <path d="M148.051,22.554 L138.024,22.554 L138.024,17.541 C138.024,14.771 140.27,12.528 143.039,12.528 C145.807,12.528 148.051,14.771 148.051,17.541 L148.051,22.554" id="Fill-34" fill="#87A03E" sketch:type="MSShapeGroup"></path>
            <path d="M74.951,44.868 C74.951,42.099 72.706,39.856 69.938,39.856 C67.17,39.856 64.925,42.099 64.925,44.868 L64.925,16.71 C64.925,13.941 67.17,11.698 69.938,11.698 C72.706,11.698 74.951,13.941 74.951,16.71 L74.951,44.868" id="Fill-35" fill="#00A2DA" sketch:type="MSShapeGroup"></path>
            <path d="M111.539,44.868 C111.539,42.099 109.294,39.856 106.525,39.856 C103.756,39.856 101.512,42.099 101.512,44.868 L101.512,16.71 C101.512,13.941 103.756,11.698 106.525,11.698 C109.294,11.698 111.539,13.941 111.539,16.71 L111.539,44.868" id="Fill-36" fill="#DB3931" sketch:type="MSShapeGroup"></path>
            <path d="M88.199,66.17 C75.582,66.17 64.925,56.416 64.925,44.868 C64.925,47.638 67.17,49.882 69.938,49.882 C72.706,49.882 74.951,47.638 74.951,44.868 C74.951,50.875 81.142,56.143 88.199,56.143 C91.616,56.143 95.06,54.854 97.647,52.603 C100.14,50.436 101.512,47.689 101.512,44.868 C101.512,47.638 103.756,49.882 106.525,49.882 C109.294,49.882 111.539,47.638 111.539,44.868 C111.539,56.416 100.85,66.17 88.199,66.17" id="Fill-37" fill="#EB8B2D" sketch:type="MSShapeGroup"></path>
            <path d="M69.938,49.882 C67.17,49.882 64.925,47.638 64.925,44.868 C64.925,42.099 67.17,39.856 69.938,39.856 C72.706,39.856 74.951,42.099 74.951,44.868 C74.951,47.638 72.706,49.882 69.938,49.882" id="Fill-38" fill="#016341" sketch:type="MSShapeGroup"></path>
            <path d="M106.525,49.882 C103.756,49.882 101.512,47.638 101.512,44.868 C101.512,42.099 103.756,39.856 106.525,39.856 C109.294,39.856 111.539,42.099 111.539,44.868 C111.539,47.638 109.294,49.882 106.525,49.882" id="Fill-39" fill="#DA2F2A" sketch:type="MSShapeGroup"></path>
            <path d="M173.601,44.948 C173.6,44.922 173.6,44.895 173.6,44.868 L173.6,16.71 C173.6,13.941 175.844,11.698 178.613,11.698 C181.381,11.698 183.626,13.941 183.626,16.71 L183.626,44.868 C183.626,42.099 181.381,39.856 178.613,39.856 C175.844,39.856 173.601,42.099 173.601,44.868 L173.601,44.948" id="Fill-40" fill="#00A2DA" sketch:type="MSShapeGroup"></path>
            <path d="M220.215,44.868 C220.215,42.099 217.969,39.856 215.203,39.856 C212.432,39.856 210.186,42.099 210.186,44.868 L210.186,16.71 C210.186,13.941 212.432,11.698 215.203,11.698 C217.969,11.698 220.215,13.941 220.215,16.71 L220.215,44.868" id="Fill-41" fill="#DB3931" sketch:type="MSShapeGroup"></path>
            <path d="M196.875,66.17 C184.288,66.17 173.65,56.461 173.601,44.948 C173.643,47.681 175.87,49.882 178.613,49.882 C181.381,49.882 183.626,47.638 183.626,44.868 C183.626,50.875 189.817,56.143 196.875,56.143 C200.29,56.143 203.734,54.854 206.321,52.603 C208.815,50.436 210.186,47.689 210.186,44.868 C210.186,47.638 212.432,49.882 215.203,49.882 C217.969,49.882 220.215,47.638 220.215,44.868 C220.215,56.416 209.525,66.17 196.875,66.17" id="Fill-42" fill="#EB8B2D" sketch:type="MSShapeGroup"></path>
            <path d="M178.613,49.882 C175.87,49.882 173.643,47.681 173.601,44.948 L173.601,44.868 C173.601,42.099 175.844,39.856 178.613,39.856 C181.381,39.856 183.626,42.099 183.626,44.868 C183.626,47.638 181.381,49.882 178.613,49.882" id="Fill-43" fill="#016341" sketch:type="MSShapeGroup"></path>
            <path d="M215.203,49.882 C212.432,49.882 210.186,47.638 210.186,44.868 C210.186,42.099 212.432,39.856 215.203,39.856 C217.969,39.856 220.215,42.099 220.215,44.868 C220.215,47.638 217.969,49.882 215.203,49.882" id="Fill-44" fill="#DA2F2A" sketch:type="MSShapeGroup"></path>
            <path d="M343.249,66.164 C342.484,66.164 341.71,65.99 340.983,65.621 C338.515,64.367 337.532,61.351 338.785,58.884 L360.877,15.392 C360.224,16.75 360.189,18.387 360.924,19.834 L365.391,28.628 L356.322,46.485 L348.166,46.485 C345.4,46.485 343.156,48.729 343.156,51.495 C343.156,54.262 345.4,56.505 348.166,56.505 L351.232,56.505 L347.719,63.422 C346.834,65.162 345.075,66.164 343.249,66.164 M369.916,15.412 L369.858,15.299 C368.975,13.558 367.217,12.557 365.391,12.555 L365.396,12.555 C366.159,12.555 366.934,12.73 367.661,13.098 C368.687,13.62 369.457,14.447 369.916,15.412" id="Fill-45" fill="#DB3931" sketch:type="MSShapeGroup"></path>
            <path d="M387.535,66.164 C385.707,66.164 383.948,65.162 383.065,63.422 L379.552,56.505 L382.622,56.505 C385.389,56.505 387.632,54.262 387.632,51.495 C387.632,48.729 385.389,46.485 382.622,46.485 L374.462,46.485 L365.391,28.628 L369.858,19.834 C370.59,18.394 370.559,16.767 369.916,15.412 L391.999,58.884 C393.25,61.351 392.265,64.367 389.8,65.621 C389.073,65.99 388.297,66.164 387.535,66.164 M360.877,15.392 C361.337,14.435 362.103,13.616 363.122,13.098 C363.849,12.73 364.624,12.555 365.387,12.555 L365.391,12.555 C363.566,12.557 361.807,13.559 360.924,15.299 L360.877,15.392" id="Fill-46" fill="#F9C623" sketch:type="MSShapeGroup"></path>
            <path d="M365.391,28.628 L360.924,19.834 C360.189,18.387 360.224,16.75 360.877,15.392 L360.924,15.299 C361.807,13.559 363.566,12.557 365.391,12.555 C367.217,12.557 368.975,13.558 369.858,15.299 L369.916,15.412 C370.559,16.767 370.59,18.394 369.858,19.834 L365.391,28.628" id="Fill-47" fill="#DB352A" sketch:type="MSShapeGroup"></path>
            <path d="M379.552,56.505 L351.232,56.505 L356.322,46.485 L374.462,46.485 L379.552,56.505" id="Fill-48" fill="#00A2DA" sketch:type="MSShapeGroup"></path>
            <path d="M351.232,56.505 L348.166,56.505 C345.4,56.505 343.156,54.262 343.156,51.495 C343.156,48.729 345.4,46.485 348.166,46.485 L356.322,46.485 L351.232,56.505" id="Fill-49" fill="#2D3839" sketch:type="MSShapeGroup"></path>
            <path d="M382.622,56.505 L379.552,56.505 L374.462,46.485 L382.622,46.485 C385.389,46.485 387.632,48.729 387.632,51.495 C387.632,54.262 385.389,56.505 382.622,56.505" id="Fill-50" fill="#008347" sketch:type="MSShapeGroup"></path>
            <g id="Group-54">
                <g id="Clip-52"></g>
                <path d="M373.075,6.563 L357.708,6.563 C355.911,6.563 354.454,5.105 354.454,3.306 C354.454,1.507 355.911,0.05 357.708,0.05 L373.075,0.05 C374.873,0.05 376.331,1.507 376.331,3.306 C376.331,5.105 374.873,6.563 373.075,6.563" id="Fill-51" fill="#E46D9F" sketch:type="MSShapeGroup" mask="url(#mask-2)"></path>
            </g>
        </g>
    </g>
</svg>