<?xml version="1.0" encoding="UTF-8" standalone="no"?>
<svg width="595px" height="842px" viewBox="0 0 595 842" version="1.1" xmlns="http://www.w3.org/2000/svg" xmlns:xlink="http://www.w3.org/1999/xlink" xmlns:sketch="http://www.bohemiancoding.com/sketch/ns">
    <title>Affiche2</title>
    <description>Created with Sketch (http://www.bohemiancoding.com/sketch)</description>
    <defs>
        <radialGradient cx="50.2853383%" cy="23.2827471%" fx="50.2853383%" fy="23.2827471%" r="79.1000962%" id="radialGradient-1">
            <stop stop-color="#FAEB0F" offset="0%"></stop>
            <stop stop-color="#F1C309" offset="100%"></stop>
        </radialGradient>
        <linearGradient x1="50.0561972%" y1="100.161824%" x2="50.0561972%" y2="2.27714023%" id="linearGradient-2" stop-color="#FFFFFF">
            <stop stop-opacity="0" offset="0%"></stop>
            <stop stop-opacity="0.7" offset="100%"></stop>
        </linearGradient>
        <linearGradient x1="50%" y1="99.0472863%" x2="50%" y2="0.42232074%" id="linearGradient-3" stop-color="#FFFFFF">
            <stop stop-opacity="0" offset="0%"></stop>
            <stop offset="100%"></stop>
        </linearGradient>
    </defs>
    <g id="Page-1" stroke="none" stroke-width="1" fill="none" fill-rule="evenodd" sketch:type="MSPage">
        <g id="Affiche2" sketch:type="MSArtboardGroup">
            <polygon id="Polygon-1" stroke="#5B5B5B" sketch:type="MSShapeGroup" points="178.5 71 391.975262 194.25 391.975262 440.75 178.5 564 -34.975262 440.75 -34.975262 194.25 "></polygon>
            <polygon id="Polygon-1-copy" stroke="#ABABAB" sketch:type="MSShapeGroup" points="408.5 471 621.975262 594.25 621.975262 840.75 408.5 964 195.024738 840.75 195.024738 594.25 "></polygon>
            <text id="le-XX/XX/2014" fill="#4A4A4A" sketch:type="MSTextLayer" font-family="Courier New" font-size="36" font-weight="normal" sketch:alignment="right">
                <tspan x="277.154297" y="590">le XX/XX/2014</tspan>
                <tspan x="269.953125" y="631" font-size="30">vers 19h / 19h30</tspan>
                <tspan x="320.361328" y="665">au MUTUALAB</tspan>
                <tspan x="341.964844" y="706" font-size="24">19, rue Nicolas </tspan>
                <tspan x="341.964844" y="733" font-size="24">Leblanc à LILLE</tspan>
                <tspan x="255.550781" y="760" font-size="24">paf  :  boissons - 2€</tspan>
            </text>
            <polygon id="Polygon-1-copy-2" stroke="#ABABAB" sketch:type="MSShapeGroup" points="640.5 71 853.975262 194.25 853.975262 440.75 640.5 564 427.024738 440.75 427.024738 194.25 "></polygon>
            <polygon id="Polygon-1-copy-3" stroke="#ABABAB" sketch:type="MSShapeGroup" points="410.5 -329 623.975262 -205.75 623.975262 40.75 410.5 164 197.024738 40.75 197.024738 -205.75 "></polygon>
            <polygon id="Polygon-1-copy-4" stroke="#ABABAB" sketch:type="MSShapeGroup" points="-49.5 -329 163.975262 -205.75 163.975262 40.75 -49.5 164 -262.975262 40.75 -262.975262 -205.75 "></polygon>
            <polygon id="Polygon-1-copy-2" stroke="#ABABAB" sketch:type="MSShapeGroup" points="-51.5 471 161.975262 594.25 161.975262 840.75 -51.5 964 -264.975262 840.75 -264.975262 594.25 "></polygon>
            <g id="CHTI-copy" sketch:type="MSLayerGroup" transform="translate(518.000000, 771.000000)" fill="#575747">
                <path d="M1.28531073,7.7237395 C0.428436911,6.89417017 0,5.87316176 0,4.62880777 C0,3.41636029 0.428436911,2.39535189 1.28531073,1.56578256 C2.14218456,0.736213235 3.19679849,0.321428571 4.44915254,0.321428571 C5.73446328,0.321428571 6.8220339,0.704306723 7.74482109,1.47006303 L6.55838041,2.74632353 C5.96516008,2.29963235 5.24011299,2.04438025 4.48210923,2.04438025 C3.69114878,2.04438025 3.03201507,2.29963235 2.53766478,2.77823004 C2.0433145,3.25682773 1.8126177,3.86305147 1.8126177,4.62880777 C1.8126177,5.42647059 2.07627119,6.06460084 2.57062147,6.54319853 C3.06497175,7.02179622 3.72410546,7.24514181 4.51506591,7.24514181 C5.30602637,7.24514181 5.99811676,7.02179622 6.5913371,6.57510504 L7.77777778,7.85136555 C6.85499058,8.61712185 5.76741996,9 4.48210923,9 C3.19679849,8.96809349 2.14218456,8.55330882 1.28531073,7.7237395 L1.28531073,7.7237395 Z" id="Shape" sketch:type="MSShapeGroup"></path>
                <path d="M10.3703704,9 L10.3703704,0.321428571 L12.0904558,0.321428571 L12.0904558,3.78004744 L16.1039886,3.78004744 L16.1039886,0.321428571 L17.8240741,0.321428571 L17.8240741,9 L16.1039886,9 L16.1039886,5.41328413 L12.0904558,5.41328413 L12.0904558,9 L10.3703704,9 L10.3703704,9 Z" id="Shape" sketch:type="MSShapeGroup"></path>
                <path d="M20.4646776,1.64366883 L20.4166667,1.64366883 C20.2246228,1.64366883 20.0565844,1.57792208 19.9365569,1.41355519 C19.8165295,1.24918831 19.7685185,1.05194805 19.7685185,0.821834416 C19.7685185,0.591720779 19.8165295,0.394480519 19.9365569,0.230113636 C20.0565844,0.0657467532 20.2006173,0 20.4166667,0 C20.632716,0 20.776749,0.0657467532 20.8967764,0.230113636 C21.0168038,0.394480519 21.0648148,0.591720779 21.0648148,0.821834416 L21.0648148,0.854707792 C21.0648148,1.80803571 20.776749,2.49837662 20.2006173,2.89285714 L19.9845679,2.36688312 C20.2246228,2.23538961 20.3686557,1.9724026 20.4646776,1.64366883 L20.4646776,1.64366883 Z" id="Shape" sketch:type="MSShapeGroup"></path>
                <path d="M30.462963,0.321428571 L30.462963,1.95466526 L27.5961538,1.95466526 L27.5961538,9 L25.8760684,9 L25.8760684,1.95466526 L23.0092593,1.95466526 L23.0092593,0.321428571 L30.462963,0.321428571 L30.462963,0.321428571 Z" id="Shape" sketch:type="MSShapeGroup"></path>
                <path d="M33.3796296,0.321428571 L35,0.321428571 L35,9 L33.3796296,9 L33.3796296,0.321428571 L33.3796296,0.321428571 Z" id="Shape" sketch:type="MSShapeGroup"></path>
            </g>
            <g id="chtijs-copy" sketch:type="MSLayerGroup" transform="translate(513.000000, 783.000000)">
                <g id="logo" sketch:type="MSShapeGroup">
                    <path d="M44.6294294,4.56726379 C45.3043546,4.17092393 45.8386704,4.51064381 45.8386704,5.27501354 L45.7543048,28.8855451 C45.7543048,29.6782249 45.1918671,30.6124545 44.5169419,31.0087944 L24.0442106,42.7574402 C23.3692853,43.1537801 22.2725319,43.1254701 21.5976067,42.7574402 L1.209241,30.8672444 C0.53431579,30.4709046 0,29.5083649 0,28.7439952 L0.0843656511,5.16177358 C0.0843656511,4.36909386 0.646803325,4.05768397 1.29360665,4.45402383 L21.6819723,16.3442196 C22.3568975,16.7405595 23.453651,16.7405595 24.1285762,16.3442196 L44.6294294,4.56726379 L44.6294294,4.56726379 Z" id="fond" stroke="#ACAC9D" stroke-width="0.75" fill="#DCDCCC"></path>
                    <path d="M9.87078117,13.4849106 C9.87078117,12.7771609 10.3488532,11.9278612 10.9394128,11.5881413 L21.9069474,5.13346359 C22.4975069,4.79374371 23.4817729,4.76543372 24.0723324,5.1051536 L35.0961108,11.4465913 C35.6866704,11.7863112 36.1928643,12.6356109 36.1928643,13.3433607 L36.2491081,26.1111661 C36.2491081,26.8189159 35.771036,27.6682156 35.1804765,28.0079355 L24.2129419,34.4626132 C23.6223823,34.802333 22.6381164,34.830643 22.0475568,34.4909231 L11.0237784,28.1494854 C10.4332188,27.8097655 9.92702494,26.9604658 9.92702494,26.2810261 L9.87078117,13.4849106 L9.87078117,13.4849106 Z" id="Shape" fill="#8A8A7B"></path>
                    <g id="hexa-jaune" transform="translate(7.592909, -0.160505)">
                        <path d="M15.3264266,34.0286079 C14.8483546,34.0286079 14.3702826,33.9153679 14.03282,33.717198 L1.68731302,26.6397005 C0.956144045,26.2150507 0.365584488,25.195891 0.365584488,24.3465913 L0.281218837,10.0500464 C0.281218837,9.20074673 0.843656511,8.18158709 1.57482549,7.75693724 L13.8359668,0.537889809 C14.2015513,0.339719879 14.6796233,0.226479919 15.1576953,0.226479919 C15.6357673,0.226479919 16.1138394,0.339719879 16.451302,0.537889809 L28.7968089,7.61538729 C29.5279779,8.04003714 30.1185374,9.05919678 30.1185374,9.90849648 L30.2029031,24.2050414 C30.2029031,25.0543411 29.6404654,26.0735007 28.9092964,26.4981506 L16.6481551,33.717198 C16.3106925,33.9153679 15.8326205,34.0286079 15.3264266,34.0286079 L15.3264266,34.0286079 Z" id="Shape" fill="url(#radialGradient-1)"></path>
                        <path d="M15.1858172,0.424649849 C15.6076454,0.424649849 16.0575956,0.509579819 16.3950582,0.707749748 L28.7405651,7.78524723 C29.4154903,8.18158709 29.9498061,9.11581676 29.9498061,9.88018649 L30.0341718,24.1767314 C30.0341718,24.9694111 29.499856,25.9036408 28.8249308,26.2999806 L16.5637895,33.5190281 C16.2263269,33.717198 15.7763767,33.802128 15.3264266,33.802128 C14.9045984,33.802128 14.4546482,33.717198 14.1171856,33.5190281 L1.77167867,26.4415306 C1.09675346,26.0451907 0.562437674,25.1109611 0.562437674,24.3182814 L0.478072023,10.0217364 C0.478072023,9.22905672 1.01238781,8.29482705 1.68731302,7.89848719 L13.9484543,0.679439758 C14.2859169,0.537889809 14.7358671,0.424649849 15.1858172,0.424649849 L15.1858172,0.424649849 Z M15.1858172,0 L15.1858172,0 C14.6515014,0 14.1453075,0.11323996 13.7516011,0.368029869 L1.49045984,7.55876731 C0.703047092,8.04003714 0.0843656511,9.11581676 0.0843656511,10.0500464 L0.168731302,24.3465913 C0.168731302,25.280821 0.815534627,26.3566006 1.60294737,26.8095605 L13.9484543,33.8870579 C14.3421607,34.1135379 14.8202327,34.2267778 15.3545485,34.2267778 C15.8888643,34.2267778 16.3950582,34.1135379 16.7887646,33.858748 L29.0499058,26.6397005 C29.8373186,26.1584307 30.456,25.0826511 30.456,24.1484214 L30.3716344,9.90849648 C30.3716344,8.97426681 29.7248311,7.89848719 28.9374183,7.44552735 L16.5919114,0.368029869 C16.198205,0.11323996 15.6920111,0 15.1858172,0 L15.1858172,0 L15.1858172,0 Z" id="Shape" fill="#C5A807"></path>
                    </g>
                    <path d="M14.6796233,29.4234349 C16.929374,20.6756481 21.7944599,9.80461192 27.9812743,2.72711444 L23.9598449,0.547245217 C23.2849197,0.150905358 22.1881662,0.179215348 21.513241,0.547245217 L9.22397785,7.76629265 C8.54905264,8.16263251 8.01473685,9.12517217 8.01473685,9.88954189 L8.0991025,24.2143968 C8.0991025,25.0070765 8.66154018,25.9413062 9.33646538,26.337646 L14.6796233,29.4234349 L14.6796233,29.4234349 Z" id="glow" opacity="0.7" fill="url(#linearGradient-2)"></path>
                    <path d="M8.15534627,9.88954189 L8.23971192,24.1860868 C8.23971192,24.9787665 8.80214959,25.9129962 9.44895292,26.2810261 L21.7944599,33.3585235 C22.4693851,33.7548634 23.5661385,33.7265534 24.2129419,33.3585235 L36.4740831,26.1394761 C37.1490083,25.7431363 37.6833241,24.8089066 37.6833241,24.0162269 L37.5989585,9.71968195 C37.5989585,8.92700224 37.0365208,7.99277257 36.3897175,7.59643271 L24.0442106,0.518935227 C23.3692853,0.122595368 22.2725319,0.150905358 21.6257286,0.518935227 L9.36458727,7.76629265 C8.68966206,8.16263251 8.15534627,9.12517217 8.15534627,9.88954189 L8.15534627,9.88954189 Z M8.43656511,10.0310918 C8.43656511,9.26672212 8.9708809,8.33249245 9.61768422,7.96446258 L21.6257286,0.886965096 C22.2725319,0.490625237 23.3411635,0.490625237 23.9879668,0.886965096 L36.0803768,7.82291263 C36.7271801,8.1909425 37.2896178,9.12517217 37.2896178,9.88954189 L37.3739834,23.9029869 C37.3739834,24.6673566 36.8396676,25.6015863 36.1928643,25.9696162 L24.18482,33.0471137 C23.5380166,33.4434535 22.4693851,33.4434535 21.8225817,33.0471137 L9.73017176,26.1111661 C9.08336843,25.7431363 8.52093076,24.8089066 8.52093076,24.0445369 L8.43656511,10.0310918 L8.43656511,10.0310918 Z" id="stroke-light" fill="url(#linearGradient-3)"></path>
                    <g id="JS" transform="translate(14.060942, 11.163491)" fill="#FFFFFF">
                        <path d="M3.74021053,12.1732957 C2.81218837,12.1732957 2.05289751,12.0034357 1.40609418,11.6354059 C0.787412743,11.295686 0.281218837,10.8710361 -0.140609418,10.3897663 L1.49045984,8.54961696 C1.82792244,8.91764683 2.16538504,9.22905672 2.50284765,9.42722665 C2.84031025,9.62539658 3.23401662,9.73863654 3.627723,9.73863654 C4.1339169,9.73863654 4.49950139,9.59708659 4.78072023,9.2856767 C5.06193906,8.97426681 5.20254848,8.46468699 5.20254848,7.78524723 L5.20254848,0.11323996 L7.87412743,0.11323996 L7.87412743,7.89848719 C7.87412743,8.60623694 7.78976178,9.22905672 7.5929086,9.73863654 C7.39605541,10.2482164 7.11483657,10.7011762 6.77737397,11.0692061 C6.41178948,11.4372359 5.96183934,11.7203358 5.45564544,11.8901958 C4.97757341,12.0883657 4.38701385,12.1732957 3.74021053,12.1732957 L3.74021053,12.1732957 Z" id="Shape"></path>
                        <path d="M14.7921108,12.1732957 C13.8922105,12.1732957 13.0204321,12.0034357 12.1486538,11.7203358 C11.2768754,11.4089259 10.4894626,10.9276561 9.78641552,10.2765263 L11.3331191,8.436377 C11.8674349,8.88933684 12.4298726,9.22905672 12.9923103,9.48384663 C13.5547479,9.73863654 14.1734294,9.88018649 14.8483546,9.88018649 C15.3826704,9.88018649 15.8044986,9.79525652 16.1138394,9.59708659 C16.4231801,9.39891666 16.5637895,9.11581676 16.5637895,8.77609688 L16.5637895,8.74778689 C16.5637895,8.57792695 16.5356676,8.436377 16.4794238,8.29482705 C16.4231801,8.1532771 16.3106925,8.04003714 16.1138394,7.92679718 C15.945108,7.81355722 15.6920111,7.70031726 15.3826704,7.5870773 C15.0733297,7.47383734 14.6796233,7.36059738 14.1734294,7.21904743 C13.5828698,7.07749748 13.0204321,6.90763754 12.5423601,6.7377776 C12.0642881,6.56791766 11.6424598,6.34143774 11.3049972,6.05833785 C10.9675346,5.80354794 10.7144377,5.46382806 10.5175845,5.0674882 C10.3207313,4.67114834 10.2363657,4.18987851 10.2363657,3.59536872 L10.2363657,3.56705873 C10.2363657,3.02916892 10.3488532,2.54789909 10.5457064,2.09493925 C10.7425596,1.67028941 11.0237784,1.27394955 11.3893629,0.962539658 C11.7549474,0.651129768 12.1767756,0.396339859 12.6829695,0.226479919 C13.1891634,0.0566199799 13.7516011,-0.0283099899 14.3421607,-0.0283099899 C15.2139391,-0.0283099899 16.0013518,0.11323996 16.7325208,0.368029869 C17.4636898,0.622819778 18.138615,0.990849648 18.7291745,1.50042947 L17.3793241,3.48212876 C16.8450083,3.11409889 16.3388144,2.83099899 15.8326205,2.63282906 C15.3264266,2.43465913 14.8202327,2.32141917 14.3140388,2.32141917 C13.8078449,2.32141917 13.4422604,2.43465913 13.1891634,2.60451907 C12.9360665,2.802689 12.7954571,3.05747891 12.7954571,3.34057881 L12.7954571,3.3688888 C12.7954571,3.56705873 12.823579,3.73691867 12.9079446,3.87846862 C12.9923103,4.02001857 13.1047978,4.16156852 13.301651,4.27480848 C13.4985042,4.38804844 13.7516011,4.5012884 14.0890637,4.58621837 C14.4265263,4.67114834 14.8483546,4.81269829 15.3545485,4.95424824 C15.945108,5.12410818 16.4794238,5.29396812 16.9574959,5.49213805 C17.4355679,5.69030798 17.8292743,5.9167879 18.138615,6.19988779 C18.4479557,6.48298769 18.7010527,6.79439758 18.869784,7.19073744 C19.0385153,7.55876731 19.1228809,8.01172715 19.1228809,8.52130697 L19.1228809,8.54961696 C19.1228809,9.14412675 19.0103934,9.65370657 18.8135402,10.1066664 C18.5885651,10.5596262 18.3073463,10.9559661 17.9136399,11.267376 C17.5199335,11.5787859 17.0699834,11.8052658 16.5637895,11.9751257 C16.0294737,12.0883657 15.4389141,12.1732957 14.7921108,12.1732957 L14.7921108,12.1732957 Z" id="Shape"></path>
                    </g>
                </g>
            </g>
            <text id="#8" sketch:type="MSTextLayer" font-family="Gill Sans" font-size="72" font-style="italic" font-weight="526" letter-spacing="2.4000001" fill="#4A4A4A">
                <tspan x="275" y="247">#8</tspan>
            </text>
            <text id="chtiJS" sketch:type="MSTextLayer" font-family="Gill Sans" font-size="96" font-weight="normal" letter-spacing="3.20000052" fill="#4A4A4A">
                <tspan x="38" y="245">chtiJS</tspan>
            </text>
            <text id="http://chtijs.france" fill="#797979" sketch:type="MSTextLayer" font-family="Gill Sans" font-size="20" font-weight="normal" sketch:alignment="right">
                <tspan x="311.044922" y="792">http://chtijs.francejs.org</tspan>
                <tspan x="368.173828" y="815">twitter : @chtijs</tspan>
            </text>
        </g>
    </g>
</svg>